<svg width="1259" height="413" viewBox="0 0 1259 413" fill="none" xmlns="http://www.w3.org/2000/svg">
<path d="M1113.63 108.014C1113.63 110.535 1113.36 113.051 1112.82 115.516C1118.23 115.857 1124.55 117.555 1130.1 121.909C1135.83 118.405 1143.1 115.448 1151.55 115.448C1159.88 115.448 1169.77 118.536 1176.63 127.565C1182.53 135.331 1183.5 144.08 1183.5 149.773C1183.5 157.996 1181.24 166.622 1178.51 174.498C1178.48 174.575 1178.45 174.653 1178.43 174.729L1172.86 190.29L1173.63 190.934C1183.37 199.06 1185.29 213.291 1178.05 223.71C1168.67 237.206 1160.1 248.556 1152.38 257.543C1148.55 262.083 1144.51 266.389 1140.35 269.775C1137.32 272.248 1129.49 278.323 1118.81 278.323C1112.15 278.323 1104.76 275.97 1099.07 270.289C1095 273.22 1090.03 274.896 1084.79 274.896H1073.24C1067.73 274.896 1062.46 273.042 1058.22 269.738C1057.82 270.05 1057.43 270.356 1057.03 270.654C1053.76 273.119 1046.27 278.322 1036.32 278.323H1036.32C1029.92 278.323 1022.52 276.145 1016.73 270.473C1010.22 275.09 1002.26 278.322 992.82 278.323C979.276 278.323 967.867 271.365 961.395 259.852C956.078 250.391 954.884 239.351 954.884 229.864C954.884 214.366 957.942 198.452 963.486 182.297C969.053 165.931 976.56 151.349 986.404 139.126C996.157 126.882 1010.25 115.448 1028.98 115.448C1035.1 115.448 1042.3 116.812 1048.78 120.992C1047.09 116.774 1046.32 112.345 1046.32 108.014C1046.32 99.6601 1049.18 90.9399 1056.05 84.0695C1062.91 77.1989 1071.63 74.3313 1079.97 74.3313C1088.43 74.3314 1096.77 77.3516 1103.32 83.7075C1110.35 90.3867 1113.63 99.1769 1113.63 108.014Z" fill="black"/>
<path d="M902.567 217.207C902.567 229.517 892.693 239.496 880.514 239.496C868.334 239.496 858.461 229.517 858.461 217.207C858.461 204.898 868.334 194.919 880.514 194.919C892.693 194.919 902.567 204.898 902.567 217.207Z" fill="black"/>
<path d="M126.728 220.656L151.335 116.58C152.477 111.726 153.047 107.657 153.047 104.373C153.047 96.8066 149.196 93.0233 141.492 93.0233H133.789L134.859 89.8111H177.441L176.585 93.0233H174.017C169.452 93.0233 166.029 94.9507 163.746 98.8053C161.606 102.517 159.538 108.442 157.541 116.58L130.366 231.363L136.785 250.422H120.523L77.2989 122.576L52.2634 223.654C50.8368 229.65 50.1236 234.004 50.1236 236.717C50.1236 243.855 53.3333 247.424 59.7526 247.424H67.4558L67.2419 250.422H24.0182L24.4461 247.424H27.0139C35.573 247.424 41.8497 239.501 45.844 223.654L68.9537 131.356C70.2376 126.074 71.1648 121.862 71.7354 118.721C72.306 115.58 72.5913 112.582 72.5913 109.727C72.5913 105.587 71.6641 102.018 69.8096 99.0195C67.9551 95.8786 65.1734 93.9513 61.4644 93.2375L57.1849 92.3809L57.8268 89.8111H82.8623L126.728 220.656Z" fill="white"/>
<path d="M167.912 224.51C167.912 230.364 168.411 234.789 169.41 237.787C170.409 240.643 172.049 242.07 174.331 242.07C181.036 242.07 188.026 233.005 195.301 214.874L198.297 216.373C193.875 228.365 189.096 237.645 183.961 244.212C178.825 250.636 173.404 253.849 167.698 253.849C158.711 253.849 154.217 245.854 154.217 229.864C154.217 217.586 156.643 204.38 161.493 190.247C166.343 175.97 172.62 164.049 180.323 154.484C188.026 144.776 195.872 139.922 203.861 139.922C207.569 139.922 210.351 140.993 212.206 143.134C214.06 145.275 214.987 148.345 214.987 152.342C214.987 161.479 210.85 170.045 202.577 178.04C194.445 186.035 184.246 192.031 171.978 196.029C169.267 206.593 167.912 216.087 167.912 224.51ZM173.048 191.531C179.61 188.819 185.102 185.178 189.524 180.61C194.089 176.041 197.441 171.259 199.581 166.262C201.863 161.265 203.005 156.625 203.005 152.342C203.005 148.202 201.721 146.132 199.153 146.132C195.159 146.132 190.665 150.629 185.672 159.623C180.68 168.618 176.471 179.254 173.048 191.531Z" fill="white"/>
<path d="M211.413 241.642C211.413 235.932 212.911 228.365 215.907 218.942L232.597 164.977C233.738 161.551 234.309 159.052 234.309 157.482C234.309 156.054 233.738 155.34 232.597 155.34C229.031 155.34 223.539 162.336 216.121 176.327L213.553 175.042C218.261 164.62 223.253 156.197 228.532 149.773C233.81 143.205 238.66 139.922 243.082 139.922C246.934 139.922 248.86 142.634 248.86 148.059C248.717 152.771 247.362 159.266 244.794 167.547L228.104 220.656C225.536 229.364 224.252 235.289 224.252 238.43C224.252 242.142 225.393 243.998 227.676 243.998C231.67 243.998 236.805 239.501 243.082 230.506C249.502 221.369 255.422 209.877 260.842 196.029C266.263 182.038 269.758 168.332 271.327 154.912C271.898 149.202 272.896 145.275 274.323 143.134C275.892 140.993 278.317 139.922 281.598 139.922C283.453 139.922 284.665 140.493 285.236 141.635C285.949 142.634 286.306 144.205 286.306 146.346C286.306 148.916 285.593 152.771 284.166 157.91C282.882 162.907 280.814 169.974 277.961 179.111C273.681 193.102 270.329 204.737 267.904 214.017C265.621 223.154 264.48 230.863 264.48 237.145C264.48 241.714 265.764 243.998 268.332 243.998C271.755 243.998 276.605 239.643 282.882 230.935C289.302 222.083 294.936 211.804 299.786 200.097C304.779 188.391 307.276 178.183 307.276 169.474C307.276 165.62 306.634 161.479 305.35 157.054C304.351 154.056 303.852 151.343 303.852 148.916C303.852 146.346 304.423 144.205 305.564 142.492C306.848 140.778 308.488 139.922 310.485 139.922C315.336 139.922 317.761 144.419 317.761 153.413C317.761 165.834 314.48 180.039 307.918 196.029C301.356 211.876 293.51 225.51 284.38 236.931C275.393 248.209 267.618 253.849 261.056 253.849C255.35 253.849 252.497 249.708 252.497 241.428C252.497 239.001 252.783 236.146 253.353 232.862C254.066 229.436 255.422 223.796 257.419 215.944C251.142 227.508 244.651 236.717 237.947 243.569C231.242 250.422 225.251 253.849 219.972 253.849C214.266 253.849 211.413 249.78 211.413 241.642Z" fill="white"/>
<path d="M501.058 110.798C504.339 104.944 505.98 100.519 505.98 97.5204C505.98 95.95 505.552 94.8079 504.696 94.0941C503.84 93.3802 502.342 93.0233 500.203 93.0233H496.565L497.421 89.8111H530.801L529.946 93.0233H528.876C524.311 93.0233 520.602 94.3082 517.749 96.878C514.896 99.305 511.401 104.088 507.264 111.226L423.812 252.564H420.816L423.812 173.115L374.383 252.564H371.387L377.807 112.511C378.092 105.087 377.521 100.019 376.095 97.3063C374.811 94.451 371.887 93.0233 367.322 93.0233H364.754L365.61 89.8111H408.62L407.764 93.0233H405.41C402.272 93.0233 399.918 93.523 398.349 94.5224C396.78 95.5217 395.567 97.3777 394.711 100.09C393.998 102.803 393.499 106.872 393.213 112.297L388.078 221.298L424.026 162.621L425.952 112.511L426.166 106.729C426.166 101.589 425.453 98.0201 424.026 96.0214C422.742 94.0227 420.175 93.0233 416.323 93.0233H413.755L414.397 89.8111H454.839L453.769 93.0233H451.201C447.207 93.0233 444.568 94.451 443.284 97.3063C442.143 100.162 441.43 105.158 441.144 112.297L440.075 142.706L461.686 108.228C464.539 103.517 465.966 99.7333 465.966 96.878C465.966 94.3082 464.04 93.0233 460.189 93.0233H458.477L459.333 89.8111H488.862L488.22 93.0233H487.15C483.869 93.0233 480.802 94.1655 477.949 96.4497C475.096 98.7339 471.672 102.946 467.678 109.084L439.647 153.413L437.079 220.87L501.058 110.798Z" fill="white"/>
<path d="M475.911 245.283C475.911 236.431 479.192 223.368 485.754 206.094C492.459 188.676 500.59 173.329 510.147 160.052C519.848 146.632 529.334 139.922 538.607 139.922C541.602 139.922 545.668 141.135 550.803 143.562L558.721 134.996L562.358 135.425L527.694 238.216C538.25 228.365 547.38 218.157 555.083 207.593L557.651 209.734C548.236 223.011 539.819 233.719 532.401 241.856C524.983 249.851 519.634 253.849 516.353 253.849C514.07 253.849 512.929 252.135 512.929 248.709C512.929 245.854 514.07 240.857 516.353 233.719L533.899 180.396C521.774 205.38 511.289 223.868 502.444 235.86C493.742 247.852 486.753 253.849 481.474 253.849C479.62 253.849 478.265 253.063 477.409 251.493C476.41 250.065 475.911 247.995 475.911 245.283ZM491.103 235.218C491.103 236.788 491.603 237.573 492.601 237.573C494.17 237.573 497.095 234.718 501.374 229.007C505.654 223.297 511.289 214.303 518.279 202.025C525.269 189.604 533.257 174.043 542.244 155.34L542.886 153.627C540.604 151.629 538.535 150.13 536.681 149.13C534.969 148.131 533.115 147.631 531.117 147.631C525.554 147.631 519.705 153.556 513.571 165.405C507.437 177.112 502.159 190.318 497.737 205.023C493.315 219.728 491.103 229.793 491.103 235.218Z" fill="white"/>
<path d="M582.716 139.922C586.853 139.922 589.92 146.346 591.917 159.195C593.915 171.901 594.913 187.391 594.913 205.665C594.913 220.656 594.414 232.933 593.415 242.499C600.833 228.65 606.896 215.016 611.604 201.596C616.311 188.176 618.665 177.112 618.665 168.403C618.665 164.263 618.094 160.337 616.953 156.625C615.954 153.627 615.455 150.843 615.455 148.274C615.455 145.704 616.026 143.705 617.167 142.277C618.451 140.707 620.234 139.922 622.516 139.922C627.224 139.922 629.578 143.919 629.578 151.914C629.578 164.335 624.371 183.394 613.957 209.092C603.686 234.647 591.49 257.418 577.367 277.405C563.244 297.392 550.406 307.386 538.851 307.386C535.712 307.386 533.359 306.743 531.789 305.458C530.22 304.173 529.436 302.317 529.436 299.89C529.436 297.749 530.149 295.893 531.576 294.323C532.859 292.895 534.429 292.181 536.283 292.181C537.852 292.181 539.493 292.895 541.205 294.323C542.916 296.036 544.985 296.892 547.41 296.892C551.404 296.892 556.397 293.823 562.388 287.684C568.38 281.545 574.657 273.407 581.219 263.271C582.074 251.85 582.502 237.787 582.502 221.084C582.502 202.953 581.86 187.463 580.577 174.614C579.435 161.622 577.652 155.126 575.227 155.126C571.804 155.126 566.597 161.908 559.607 175.47L557.253 173.757C567.381 151.2 575.869 139.922 582.716 139.922Z" fill="white"/>
<path d="M660.68 146.346C657.969 146.346 655.687 147.988 653.832 151.272C651.978 154.412 651.051 157.91 651.051 161.765C651.051 166.476 651.336 170.902 651.907 175.042C652.477 179.04 653.333 183.679 654.474 188.962C656.614 198.813 657.684 207.236 657.684 214.231C657.684 222.083 656.044 229.007 652.763 235.004C649.624 241 645.416 245.64 640.138 248.923C635.002 252.207 629.439 253.849 623.448 253.849C620.309 253.849 617.813 253.135 615.958 251.707C614.104 250.422 613.177 248.424 613.177 245.711C613.177 243.712 613.818 242.07 615.102 240.786C616.386 239.358 618.098 238.644 620.238 238.644C621.807 238.644 623.02 239.001 623.875 239.715C624.731 240.286 625.659 241.214 626.657 242.499C627.798 243.926 628.797 244.997 629.653 245.711C630.651 246.282 631.935 246.568 633.505 246.568C637.071 246.568 639.995 244.569 642.278 240.571C644.56 236.574 645.701 231.791 645.701 226.223C645.701 217.515 644.56 207.735 642.278 196.885C640.423 187.891 639.496 180.539 639.496 174.828C639.496 167.69 640.922 161.479 643.776 156.197C646.771 150.915 650.551 146.917 655.116 144.205C659.681 141.349 664.389 139.922 669.239 139.922C672.092 139.922 674.374 140.636 676.086 142.063C677.941 143.348 678.868 145.347 678.868 148.059C678.868 149.915 678.297 151.486 677.156 152.771C676.015 154.056 674.446 154.698 672.449 154.698C671.022 154.698 669.952 154.341 669.239 153.627C668.526 152.913 667.812 151.914 667.099 150.629C666.101 149.059 665.173 147.988 664.317 147.417C663.461 146.703 662.249 146.346 660.68 146.346Z" fill="white"/>
<path d="M751.35 139.922C762.905 139.922 768.682 149.63 768.682 169.046C768.682 180.182 766.4 192.459 761.835 205.879C757.413 219.299 751.564 230.649 744.289 239.929C737.156 249.209 729.738 253.849 722.035 253.849C710.48 253.849 704.703 244.141 704.703 224.724C704.703 213.589 706.914 201.311 711.336 187.891C715.901 174.471 721.75 163.121 728.882 153.841C736.157 144.562 743.647 139.922 751.35 139.922ZM750.922 145.49C746.5 145.49 741.436 150.772 735.729 161.337C730.166 171.901 725.387 184.465 721.393 199.027C717.541 213.446 715.615 225.652 715.615 235.646C715.615 239.929 716.115 243.141 717.113 245.283C718.255 247.281 720.038 248.281 722.463 248.281C726.885 248.281 731.878 242.998 737.441 232.434C743.147 221.869 747.926 209.377 751.778 194.958C755.772 180.396 757.769 168.118 757.769 158.124C757.769 153.841 757.199 150.701 756.057 148.702C755.059 146.56 753.347 145.49 750.922 145.49Z" fill="white"/>
<path d="M733.81 306.101C729.103 306.101 725.465 305.173 722.897 303.317C720.33 301.604 719.046 299.319 719.046 296.464C719.046 294.751 719.616 293.252 720.758 291.967C721.899 290.682 723.468 290.04 725.465 290.04C727.034 290.04 728.247 290.397 729.103 291.11C729.816 291.967 730.672 293.252 731.671 294.965C732.669 296.821 733.739 298.177 734.88 299.034C735.879 300.033 737.448 300.533 739.588 300.533C744.438 300.533 748.86 297.321 752.854 290.896C756.849 284.472 760.986 273.336 765.265 257.489L794.152 149.987H778.746L779.602 147.845L795.864 143.991C801.142 124.432 807.704 110.155 815.55 101.161C823.396 92.1667 831.741 87.6696 840.586 87.6696C844.723 87.6696 848.075 88.5976 850.643 90.4536C853.353 92.1667 854.708 94.3082 854.708 96.878C854.708 98.7339 854.138 100.233 852.996 101.375C851.855 102.517 850.286 103.088 848.289 103.088C847.005 103.088 845.935 102.731 845.079 102.018C844.366 101.304 843.581 100.304 842.726 99.0195C841.584 97.3063 840.443 96.0928 839.302 95.379C838.303 94.5224 836.805 94.0941 834.808 94.0941C831.813 94.0941 829.102 95.2362 826.677 97.5204C824.395 99.6619 822.041 103.659 819.616 109.513C817.191 115.223 814.48 123.504 811.485 134.354L809.131 143.348H830.743L828.389 149.987H807.205L782.383 241C775.964 264.413 768.76 281.117 760.772 291.11C752.641 301.104 743.653 306.101 733.81 306.101Z" fill="white"/>
<path d="M905.007 210.805C905.007 205.665 904.222 201.025 902.653 196.885C901.084 192.602 899.229 188.89 897.089 185.749C894.95 182.466 891.883 178.326 887.888 173.329C881.897 166.191 877.403 159.838 874.408 154.27C871.412 148.559 869.914 141.706 869.914 133.711C869.914 125.431 871.697 117.65 875.264 110.369C878.973 103.088 883.894 97.3063 890.028 93.0233C896.162 88.5976 902.796 86.3847 909.928 86.3847C915.777 86.3847 920.77 87.741 924.907 90.4536C929.044 93.0233 932.325 96.5211 934.75 100.947L926.618 134.354H923.195C924.907 126.645 925.763 120.648 925.763 116.365C925.763 108.513 924.479 102.589 921.911 98.5912C919.343 94.451 914.921 92.3809 908.644 92.3809C901.084 92.3809 894.878 95.5217 890.028 101.803C885.321 107.942 882.967 115.866 882.967 125.574C882.967 132.141 884.322 137.923 887.032 142.92C889.743 147.774 893.88 153.627 899.443 160.48C903.58 165.62 906.861 170.045 909.286 173.757C911.854 177.326 913.994 181.609 915.706 186.606C917.417 191.46 918.273 196.814 918.273 202.667C918.273 212.518 916.205 221.369 912.068 229.222C907.931 236.931 902.582 242.998 896.02 247.424C889.458 251.707 882.539 253.849 875.264 253.849C861.284 253.849 850.656 248.995 843.381 239.287L853.224 202.667H856.647C854.793 210.948 853.866 217.443 853.866 222.155C853.866 230.435 855.578 236.788 859.001 241.214C862.425 245.64 868.131 247.852 876.12 247.852C884.821 247.852 891.811 244.355 897.089 237.359C902.368 230.221 905.007 221.369 905.007 210.805Z" fill="white"/>
<path d="M939.69 224.51C939.69 230.364 940.189 234.789 941.187 237.787C942.186 240.643 943.826 242.07 946.109 242.07C952.814 242.07 959.804 233.005 967.079 214.874L970.075 216.373C965.652 228.365 960.873 237.645 955.738 244.212C950.602 250.636 945.182 253.849 939.476 253.849C930.489 253.849 925.995 245.854 925.995 229.864C925.995 217.586 928.42 204.38 933.27 190.247C938.12 175.97 944.397 164.049 952.1 154.484C959.804 144.776 967.649 139.922 975.638 139.922C979.347 139.922 982.129 140.993 983.983 143.134C985.838 145.275 986.765 148.345 986.765 152.342C986.765 161.479 982.628 170.045 974.354 178.04C966.223 186.035 956.023 192.031 943.755 196.029C941.045 206.593 939.69 216.087 939.69 224.51ZM944.825 191.531C951.387 188.819 956.879 185.178 961.301 180.61C965.866 176.041 969.219 171.259 971.358 166.262C973.641 161.265 974.782 156.625 974.782 152.342C974.782 148.202 973.498 146.132 970.93 146.132C966.936 146.132 962.443 150.629 957.45 159.623C952.457 168.618 948.249 179.254 944.825 191.531Z" fill="white"/>
<path d="M993.034 224.51C993.034 230.364 993.533 234.789 994.532 237.787C995.53 240.643 997.171 242.07 999.453 242.07C1006.16 242.07 1013.15 233.005 1020.42 214.874L1023.42 216.373C1019 228.365 1014.22 237.645 1009.08 244.212C1003.95 250.636 998.526 253.849 992.82 253.849C983.833 253.849 979.339 245.854 979.339 229.864C979.339 217.586 981.764 204.38 986.614 190.247C991.465 175.97 997.741 164.049 1005.44 154.484C1013.15 144.776 1020.99 139.922 1028.98 139.922C1032.69 139.922 1035.47 140.993 1037.33 143.134C1039.18 145.275 1040.11 148.345 1040.11 152.342C1040.11 161.479 1035.97 170.045 1027.7 178.04C1019.57 186.035 1009.37 192.031 997.099 196.029C994.389 206.593 993.034 216.087 993.034 224.51ZM998.169 191.531C1004.73 188.819 1010.22 185.178 1014.65 180.61C1019.21 176.041 1022.56 171.259 1024.7 166.262C1026.99 161.265 1028.13 156.625 1028.13 152.342C1028.13 148.202 1026.84 146.132 1024.27 146.132C1020.28 146.132 1015.79 150.629 1010.79 159.623C1005.8 168.618 1001.59 179.254 998.169 191.531Z" fill="white"/>
<path d="M1059.86 164.977C1061 161.551 1061.57 159.052 1061.57 157.482C1061.57 155.769 1061 154.912 1059.86 154.912C1058 154.912 1055.86 156.554 1053.44 159.838C1051.01 162.978 1047.66 168.546 1043.38 176.541L1040.39 175.042C1045.24 164.335 1050.16 155.84 1055.15 149.558C1060.29 143.134 1065.07 139.922 1069.49 139.922C1073.77 139.922 1075.91 142.634 1075.91 148.059C1075.91 152.342 1074.41 158.838 1071.41 167.547L1047.02 237.787C1057.86 227.223 1066.71 217.158 1073.55 207.593L1076.12 209.734C1055.86 239.144 1042.6 253.849 1036.32 253.849C1033.75 253.849 1032.47 252.064 1032.47 248.495C1032.47 245.497 1033.75 240.286 1036.32 232.862L1059.86 164.977Z" fill="white"/>
<path d="M1101.48 164.977C1102.62 161.551 1103.19 159.052 1103.19 157.482C1103.19 155.912 1102.62 155.126 1101.48 155.126C1099.63 155.126 1097.34 156.768 1094.63 160.052C1092.07 163.335 1088.71 168.76 1084.58 176.327L1081.79 175.042C1086.5 164.477 1091.42 155.983 1096.56 149.558C1101.69 143.134 1106.4 139.922 1110.68 139.922C1115.25 139.922 1117.53 142.634 1117.53 148.059C1117.53 151.914 1116.25 157.625 1113.68 165.191L1099.13 208.021C1109.83 184.607 1119.6 167.404 1128.44 156.411C1137.43 145.418 1145.13 139.922 1151.55 139.922C1156.54 139.922 1159.04 143.205 1159.04 149.773C1159.04 153.913 1157.83 159.481 1155.4 166.476L1129.73 238.216C1138.71 229.364 1147.27 219.157 1155.4 207.593L1157.97 209.734C1148.84 222.868 1140.78 233.505 1133.79 241.642C1126.94 249.78 1121.95 253.849 1118.81 253.849C1116.25 253.849 1114.96 251.993 1114.96 248.281C1114.96 244.997 1116.17 239.929 1118.6 233.076L1142.14 167.975C1143.42 164.406 1144.06 161.479 1144.06 159.195C1144.06 158.053 1143.85 157.268 1143.42 156.839C1142.99 156.268 1142.28 155.983 1141.28 155.983C1138.14 155.983 1133.79 159.195 1128.23 165.62C1122.81 171.901 1116.32 182.109 1108.76 196.243C1101.34 210.377 1093.35 228.436 1084.79 250.422H1073.24L1101.48 164.977Z" fill="white"/>
<path d="M1182.98 223.868C1178.42 223.868 1174.85 222.083 1172.29 218.514C1169.43 220.227 1167.51 221.869 1166.51 223.44C1165.51 224.867 1165.01 226.58 1165.01 228.579C1165.01 230.435 1165.8 232.22 1167.36 233.933C1168.93 235.646 1171.07 237.431 1173.78 239.287L1186.41 247.638C1192.11 251.35 1196.32 255.062 1199.03 258.774C1201.74 262.629 1203.1 267.269 1203.1 272.694C1203.1 279.546 1201.24 285.614 1197.54 290.896C1193.97 296.179 1189.12 300.247 1182.98 303.103C1176.99 305.958 1170.5 307.386 1163.51 307.386C1155.1 307.386 1148.46 305.601 1143.61 302.032C1138.76 298.463 1136.34 293.252 1136.34 286.399C1136.34 279.118 1138.98 272.622 1144.25 266.912C1149.39 261.344 1156.59 256.133 1165.87 251.279C1162.02 248.709 1159.09 246.139 1157.09 243.569C1155.24 241 1154.31 238.002 1154.31 234.575C1154.31 231.006 1155.67 227.723 1158.38 224.724C1161.09 221.726 1165.08 218.657 1170.36 215.516C1168.65 211.661 1167.79 206.593 1167.79 200.312C1167.79 191.888 1169.43 182.966 1172.71 173.543C1176.14 163.978 1180.63 155.983 1186.19 149.558C1191.9 143.134 1197.96 139.922 1204.38 139.922C1208.09 139.922 1211.09 141.064 1213.37 143.348H1234.98L1232.2 149.987H1217.65C1218.93 153.556 1219.58 158.124 1219.58 163.692C1219.58 172.401 1217.79 181.467 1214.23 190.889C1210.8 200.312 1206.24 208.164 1200.53 214.445C1194.97 220.727 1189.12 223.868 1182.98 223.868ZM1203.74 145.704C1200.03 145.704 1196.18 149.344 1192.19 156.625C1188.19 163.764 1184.84 172.33 1182.13 182.323C1179.42 192.174 1178.06 200.597 1178.06 207.593C1178.06 210.876 1178.49 213.517 1179.35 215.516C1180.35 217.372 1181.77 218.3 1183.63 218.3C1187.62 218.3 1191.62 214.588 1195.61 207.164C1199.6 199.598 1202.89 190.746 1205.45 180.61C1208.02 170.474 1209.3 162.122 1209.3 155.555C1209.3 148.987 1207.45 145.704 1203.74 145.704ZM1146.39 284.043C1146.39 289.754 1148.11 294.108 1151.53 297.107C1154.95 300.105 1159.88 301.604 1166.29 301.604C1174.43 301.604 1180.99 299.462 1185.98 295.179C1190.97 291.039 1193.47 285.757 1193.47 279.332C1193.47 275.335 1192.47 271.98 1190.47 269.267C1188.62 266.697 1185.2 263.842 1180.2 260.701L1169.29 253.634C1161.44 258.203 1155.67 262.914 1151.96 267.768C1148.25 272.622 1146.39 278.047 1146.39 284.043Z" fill="white"/>
<path d="M678.868 148.059C678.868 146.753 678.652 145.612 678.221 144.637L678.654 144.205L678.152 144.483C677.688 143.503 677 142.697 676.086 142.063C674.374 140.636 672.092 139.922 669.239 139.922C664.389 139.922 659.681 141.349 655.116 144.205C650.551 146.917 646.771 150.915 643.776 156.197C640.922 161.479 639.496 167.69 639.496 174.828C639.496 180.539 640.423 187.891 642.278 196.885C644.56 207.735 645.701 217.515 645.701 226.223C645.701 231.791 644.56 236.574 642.278 240.571C639.995 244.569 637.071 246.568 633.505 246.568L633.214 246.564C631.776 246.531 630.589 246.246 629.653 245.711C628.904 245.086 628.046 244.188 627.078 243.017L626.657 242.499C625.659 241.214 624.731 240.286 623.875 239.715C623.02 239.001 621.807 238.644 620.238 238.644C618.098 238.644 616.386 239.358 615.102 240.786C613.818 242.07 613.177 243.712 613.177 245.711C613.177 248.424 614.104 250.422 615.958 251.707C617.813 253.135 620.309 253.849 623.448 253.849C629.439 253.849 635.002 252.207 640.138 248.923C645.416 245.64 649.624 241 652.763 235.004C656.044 229.007 657.684 222.083 657.684 214.231C657.684 207.236 656.614 198.813 654.474 188.962C653.333 183.679 652.477 179.04 651.907 175.042C651.336 170.902 651.051 166.476 651.051 161.765C651.051 157.91 651.978 154.412 653.832 151.272C655.687 147.988 657.969 146.346 660.68 146.346C662.249 146.346 663.461 146.703 664.317 147.417C665.173 147.988 666.101 149.059 667.099 150.629C667.812 151.914 668.526 152.913 669.239 153.627C669.952 154.341 671.022 154.698 672.449 154.698C674.383 154.698 675.916 154.095 677.048 152.889L677.156 152.771C678.262 151.526 678.832 150.013 678.866 148.232L678.868 148.059ZM622.516 139.922C620.234 139.922 618.451 140.707 617.167 142.277C616.026 143.705 615.455 145.704 615.455 148.274C615.455 150.843 615.954 153.627 616.953 156.625C618.094 160.337 618.665 164.263 618.665 168.403C618.665 177.112 616.311 188.176 611.604 201.596C606.896 215.016 600.833 228.65 593.415 242.499C594.414 232.933 594.913 220.656 594.913 205.665C594.913 187.391 593.915 171.901 591.917 159.195C589.92 146.346 586.853 139.922 582.716 139.922C575.869 139.922 567.381 151.2 557.253 173.757L559.607 175.47C566.597 161.908 571.804 155.126 575.227 155.126C577.652 155.126 579.435 161.622 580.577 174.614C581.86 187.463 582.502 202.953 582.502 221.084C582.502 237.787 582.074 251.85 581.219 263.271C574.657 273.407 568.38 281.545 562.388 287.684C556.397 293.823 551.404 296.892 547.41 296.892L547.183 296.89C544.931 296.84 542.992 296.036 541.366 294.481L541.205 294.323C541.142 294.271 541.079 294.221 541.017 294.171C539.373 292.845 537.795 292.181 536.283 292.181C534.429 292.181 532.859 292.895 531.576 294.323L531.444 294.471C530.105 296.009 529.436 297.816 529.436 299.89C529.436 302.317 530.22 304.173 531.789 305.458C533.31 306.703 535.566 307.345 538.559 307.384L538.851 307.386C550.406 307.386 563.244 297.392 577.367 277.405C591.49 257.418 603.686 234.647 613.957 209.092C624.371 183.394 629.578 164.335 629.578 151.914C629.578 143.919 627.224 139.922 622.516 139.922ZM1204.38 139.922C1197.96 139.922 1191.9 143.134 1186.19 149.558C1180.63 155.983 1176.14 163.978 1172.71 173.543C1169.43 182.966 1167.79 191.888 1167.79 200.312C1167.79 206.593 1168.65 211.661 1170.36 215.516C1165.08 218.657 1161.09 221.726 1158.38 224.724C1155.67 227.723 1154.31 231.006 1154.31 234.575C1154.31 238.002 1155.24 241 1157.09 243.569C1159.09 246.139 1162.02 248.709 1165.87 251.279C1156.59 256.133 1149.39 261.344 1144.25 266.912C1138.98 272.622 1136.34 279.118 1136.34 286.399C1136.34 293.252 1138.76 298.463 1143.61 302.032C1148.46 305.601 1155.1 307.386 1163.51 307.386C1170.5 307.386 1176.99 305.958 1182.98 303.103C1189.12 300.247 1193.97 296.179 1197.54 290.896C1201.24 285.614 1203.1 279.546 1203.1 272.694C1203.1 267.269 1201.74 262.629 1199.03 258.774C1196.32 255.062 1192.11 251.35 1186.41 247.638L1173.78 239.287C1171.07 237.431 1168.93 235.646 1167.36 233.933C1165.8 232.22 1165.01 230.435 1165.01 228.579C1165.01 226.58 1165.51 224.867 1166.51 223.44C1167.51 221.869 1169.43 220.227 1172.29 218.514C1174.85 222.083 1178.42 223.868 1182.98 223.868C1189.12 223.868 1194.97 220.727 1200.53 214.445C1206.24 208.164 1210.8 200.312 1214.23 190.889C1217.79 181.467 1219.58 172.401 1219.58 163.692C1219.58 158.124 1218.93 153.556 1217.65 149.987H1232.2L1234.98 143.348H1213.37C1211.09 141.064 1208.09 139.922 1204.38 139.922ZM840.586 87.6696C831.741 87.6696 823.396 92.1667 815.55 101.161C807.704 110.155 801.142 124.432 795.864 143.991L779.602 147.845L778.746 149.987H794.152L765.265 257.489C760.986 273.336 756.849 284.472 752.854 290.896C748.86 297.321 744.438 300.533 739.588 300.533L739.193 300.527C737.319 300.47 735.913 300.004 734.976 299.126L734.88 299.034C733.739 298.177 732.669 296.821 731.671 294.965C730.672 293.252 729.816 291.967 729.103 291.11C728.247 290.397 727.034 290.04 725.465 290.04C723.468 290.04 721.899 290.682 720.758 291.967C719.616 293.252 719.046 294.751 719.046 296.464C719.046 299.319 720.33 301.604 722.897 303.317C725.385 305.115 728.877 306.042 733.372 306.098L733.81 306.101C743.653 306.101 752.641 301.104 760.772 291.11C768.76 281.117 775.964 264.413 782.383 241L807.205 149.987H828.389L830.743 143.348H809.131L811.485 134.354C814.48 123.504 817.191 115.223 819.616 109.513C822.041 103.659 824.395 99.6619 826.677 97.5204C829.102 95.2362 831.813 94.0941 834.808 94.0941C836.805 94.0941 838.303 94.5224 839.302 95.379L839.516 95.5186C840.586 96.2464 841.656 97.4133 842.726 99.0195C843.581 100.304 844.366 101.304 845.079 102.018C845.935 102.731 847.005 103.088 848.289 103.088C850.286 103.088 851.855 102.517 852.996 101.375C854.138 100.233 854.708 98.7339 854.708 96.878C854.708 94.3082 853.353 92.1667 850.643 90.4536C848.075 88.5976 844.723 87.6696 840.586 87.6696ZM1180.2 260.701C1185.2 263.842 1188.62 266.697 1190.47 269.267C1192.47 271.98 1193.47 275.335 1193.47 279.332C1193.47 285.757 1190.97 291.039 1185.98 295.179C1180.99 299.462 1174.43 301.604 1166.29 301.604C1159.88 301.604 1154.95 300.105 1151.53 297.107C1148.11 294.108 1146.39 289.754 1146.39 284.043C1146.39 278.047 1148.25 272.622 1151.96 267.768C1155.67 262.914 1161.44 258.203 1169.29 253.634L1180.2 260.701ZM82.8623 65.7741C93.183 65.7741 102.35 72.3727 105.633 82.1651L109.829 94.6808C109.615 91.5886 109.997 88.4437 111.004 85.4224L112.074 82.2099L112.231 81.7524C115.63 72.1894 124.683 65.7741 134.859 65.7741H177.441C184.903 65.7741 191.941 69.2451 196.487 75.167C201.033 81.0888 202.57 88.7887 200.648 96.0043L199.792 99.2168C197.511 107.777 190.784 114.218 182.496 116.323C181.994 117.964 181.458 119.911 180.895 122.195C187.582 118.34 195.228 115.885 203.861 115.885L204.255 115.887C210.378 115.946 217.519 117.394 223.899 121.67C229.212 118.315 235.606 115.885 243.082 115.885L243.472 115.887C249.497 115.964 256.067 117.827 261.56 122.244C267.829 117.589 275.147 115.885 281.598 115.885L281.897 115.887C285.477 115.926 290.883 116.692 296.047 119.577C300.27 117.24 305.153 115.885 310.485 115.885L310.961 115.888C315.889 115.963 321.259 117.205 326.29 120.315C331.417 123.484 334.863 127.77 337.078 131.878C341.121 139.376 341.779 147.54 341.779 153.413C341.779 169.935 337.452 187.33 330.135 205.161C330.125 205.184 330.115 205.208 330.106 205.231C322.824 222.817 313.896 238.485 303.135 251.947L303.135 251.946C297.899 258.513 292.179 264.53 285.904 269.082C279.732 273.558 271.257 277.885 261.057 277.886C254.368 277.886 247.379 275.926 241.535 271.443C235.384 275.184 228.162 277.886 219.973 277.886C211.387 277.886 202.155 274.666 195.56 266.78C188.434 273.062 179.168 277.886 167.698 277.886C160.204 277.886 153.374 275.731 147.691 271.837C144.359 273.537 140.631 274.459 136.785 274.459H120.523C110.224 274.459 101.072 267.889 97.7716 258.126L80.8597 208.104L76.6233 225.207C79.7804 226.512 82.6568 228.489 85.0338 231.044C89.5772 235.927 91.8878 242.481 91.4128 249.137L91.1987 252.135C90.3008 264.714 79.8427 274.459 67.2421 274.459H24.0182C17.0556 274.459 10.4357 271.435 5.87375 266.171C1.31183 260.907 -0.743119 253.921 0.241544 247.023L0.669706 244.025L0.754998 243.472C2.4704 233.154 10.6223 225.256 20.7191 223.677C21.2926 222.218 21.9238 220.28 22.5554 217.775L45.6271 125.629C46.8264 120.693 47.614 117.077 48.0673 114.619C43.4939 112.74 39.573 109.478 36.8895 105.235C33.3772 99.6801 32.2909 92.9283 33.8838 86.5513L34.5261 83.9811L34.6561 83.4822C37.4993 73.0481 46.9778 65.7741 57.8268 65.7741H82.8623ZM557.974 249.013C555.296 252.251 552.687 255.268 550.145 258.056C550.098 258.108 550.05 258.161 550.001 258.212C546.573 261.908 543.041 265.393 539.48 268.317C541.903 268.58 544.144 269.128 546.195 269.854C549.611 266.213 553.446 261.413 557.671 255.281C557.784 253.275 557.884 251.186 557.974 249.013ZM203.861 139.922C195.872 139.922 188.026 144.776 180.323 154.484C172.62 164.049 166.343 175.97 161.493 190.247C156.643 204.38 154.217 217.586 154.217 229.864C154.217 245.854 158.711 253.849 167.698 253.849C173.404 253.849 178.825 250.636 183.961 244.212C189.096 237.645 193.875 228.365 198.297 216.373L195.301 214.874C188.026 233.005 181.036 242.07 174.331 242.07C172.049 242.07 170.409 240.643 169.41 237.787C168.411 234.789 167.912 230.364 167.912 224.51C167.912 216.087 169.267 206.593 171.978 196.029C184.246 192.031 194.445 186.035 202.577 178.04C210.85 170.045 214.987 161.479 214.987 152.342C214.987 148.345 214.06 145.275 212.206 143.134C210.351 140.993 207.569 139.922 203.861 139.922ZM550.803 143.562C545.668 141.135 541.602 139.922 538.607 139.922C529.334 139.922 519.848 146.632 510.147 160.052C500.59 173.329 492.459 188.676 485.754 206.094C479.192 223.368 475.911 236.431 475.911 245.283C475.911 247.995 476.41 250.065 477.409 251.493C478.265 253.063 479.62 253.849 481.474 253.849C486.753 253.849 493.742 247.852 502.444 235.86C511.289 223.868 521.774 205.38 533.899 180.396L516.353 233.719C514.07 240.857 512.929 245.854 512.929 248.709C512.929 252.135 514.07 253.849 516.353 253.849C519.634 253.849 524.983 249.851 532.401 241.856C539.819 233.719 548.236 223.011 557.651 209.734L555.083 207.593C547.38 218.157 538.25 228.365 527.694 238.216L562.358 135.425L558.721 134.996L550.803 143.562ZM751.35 139.922C743.647 139.922 736.157 144.562 728.882 153.841C721.75 163.121 715.901 174.471 711.336 187.891C706.914 201.311 704.703 213.589 704.703 224.724C704.703 244.141 710.48 253.849 722.035 253.849C729.738 253.849 737.156 249.209 744.289 239.929C751.564 230.649 757.413 219.299 761.835 205.879C766.4 192.459 768.682 180.182 768.682 169.046C768.682 149.63 762.905 139.922 751.35 139.922ZM909.928 86.3847C902.796 86.3847 896.162 88.5976 890.028 93.0233C883.894 97.3063 878.973 103.088 875.264 110.369C871.697 117.65 869.914 125.431 869.914 133.711C869.914 141.706 871.412 148.559 874.408 154.27C877.403 159.838 881.897 166.191 887.888 173.329C891.883 178.326 894.95 182.466 897.089 185.749C899.229 188.89 901.084 192.602 902.653 196.885C904.222 201.025 905.007 205.665 905.007 210.805C905.007 221.369 902.368 230.221 897.089 237.359C891.811 244.355 884.821 247.852 876.12 247.852C868.131 247.852 862.425 245.64 859.001 241.214C855.578 236.788 853.866 230.435 853.866 222.155C853.866 217.443 854.793 210.948 856.647 202.667H853.224L843.381 239.287C850.656 248.995 861.284 253.849 875.264 253.849C882.539 253.849 889.458 251.707 896.02 247.424C902.582 242.998 907.931 236.931 912.068 229.222C916.205 221.369 918.273 212.518 918.273 202.667C918.273 196.814 917.417 191.46 915.706 186.606C913.994 181.609 911.854 177.326 909.286 173.757C906.861 170.045 903.58 165.62 899.443 160.48C893.88 153.627 889.743 147.774 887.032 142.92C884.322 137.923 882.967 132.141 882.967 125.574C882.967 115.866 885.321 107.942 890.028 101.803C894.878 95.5217 901.084 92.3809 908.644 92.3809C914.921 92.3809 919.343 94.451 921.911 98.5912C924.479 102.589 925.763 108.513 925.763 116.365C925.763 120.648 924.907 126.645 923.195 134.354H926.618L934.75 100.947C932.325 96.5211 929.044 93.0233 924.907 90.4536C920.77 87.741 915.777 86.3847 909.928 86.3847ZM975.638 139.922C967.649 139.922 959.804 144.776 952.1 154.484C944.397 164.049 938.12 175.97 933.27 190.247C928.42 204.38 925.995 217.586 925.995 229.864C925.995 245.854 930.489 253.849 939.476 253.849C945.182 253.849 950.602 250.636 955.738 244.212C960.873 237.645 965.652 228.365 970.075 216.373L967.079 214.874C959.804 233.005 952.814 242.07 946.109 242.07C943.826 242.07 942.186 240.643 941.187 237.787C940.189 234.789 939.69 230.364 939.69 224.51C939.69 216.087 941.045 206.593 943.755 196.029C956.023 192.031 966.223 186.035 974.354 178.04C982.628 170.045 986.765 161.479 986.765 152.342C986.765 148.345 985.838 145.275 983.983 143.134C982.129 140.993 979.347 139.922 975.638 139.922ZM1028.98 139.922C1020.99 139.922 1013.15 144.776 1005.44 154.484C997.741 164.049 991.465 175.97 986.614 190.247C981.764 204.38 979.339 217.586 979.339 229.864C979.339 245.854 983.833 253.849 992.82 253.849C998.526 253.849 1003.95 250.636 1009.08 244.212C1014.22 237.645 1019 228.365 1023.42 216.373L1020.42 214.874C1013.15 233.005 1006.16 242.07 999.453 242.07C997.171 242.07 995.53 240.643 994.532 237.787C993.533 234.789 993.034 230.364 993.034 224.51C993.034 216.087 994.389 206.593 997.099 196.029C1009.37 192.031 1019.57 186.035 1027.7 178.04C1035.97 170.045 1040.11 161.479 1040.11 152.342C1040.11 148.345 1039.18 145.275 1037.33 143.134C1035.47 140.993 1032.69 139.922 1028.98 139.922ZM1069.49 139.922C1065.07 139.922 1060.29 143.134 1055.15 149.558C1050.16 155.84 1045.24 164.335 1040.39 175.042L1043.38 176.541C1047.66 168.546 1051.01 162.978 1053.44 159.838C1055.86 156.554 1058 154.912 1059.86 154.912C1061 154.912 1061.57 155.769 1061.57 157.482C1061.57 159.052 1061 161.551 1059.86 164.977L1036.32 232.862C1033.75 240.286 1032.47 245.497 1032.47 248.495C1032.47 252.064 1033.75 253.849 1036.32 253.849C1042.6 253.849 1055.86 239.144 1076.12 209.734L1073.55 207.593C1066.71 217.158 1057.86 227.223 1047.02 237.787L1071.41 167.547C1074.41 158.838 1075.91 152.342 1075.91 148.059C1075.91 142.634 1073.77 139.922 1069.49 139.922ZM1151.55 139.922C1145.13 139.922 1137.43 145.418 1128.44 156.411C1119.6 167.404 1109.83 184.607 1099.13 208.021L1113.68 165.191C1116.25 157.625 1117.53 151.914 1117.53 148.059C1117.53 142.634 1115.25 139.922 1110.68 139.922C1106.4 139.922 1101.69 143.134 1096.56 149.558C1091.42 155.983 1086.5 164.477 1081.79 175.042L1084.58 176.327C1088.71 168.76 1092.07 163.335 1094.63 160.052C1097.34 156.768 1099.63 155.126 1101.48 155.126C1102.62 155.126 1103.19 155.912 1103.19 157.482C1103.19 159.052 1102.62 161.551 1101.48 164.977L1073.24 250.422H1084.79C1093.35 228.436 1101.34 210.377 1108.76 196.243C1116.32 182.109 1122.81 171.901 1128.23 165.62C1133.79 159.195 1138.14 155.983 1141.28 155.983C1142.28 155.983 1142.99 156.268 1143.42 156.839C1143.85 157.268 1144.06 158.053 1144.06 159.195C1144.06 161.479 1143.42 164.406 1142.14 167.975L1118.6 233.076C1116.17 239.929 1114.96 244.997 1114.96 248.281C1114.96 251.993 1116.25 253.849 1118.81 253.849C1121.95 253.849 1126.94 249.78 1133.79 241.642C1140.78 233.505 1148.84 222.868 1157.97 209.734L1155.4 207.593C1147.27 219.157 1138.71 229.364 1129.73 238.216L1155.4 166.476C1157.83 159.481 1159.04 153.913 1159.04 149.773C1159.04 143.205 1156.54 139.922 1151.55 139.922ZM365.61 89.8111L364.754 93.0233H367.322C371.887 93.0233 374.811 94.451 376.095 97.3063C377.521 100.019 378.092 105.087 377.807 112.511L371.387 252.564H374.383L423.812 173.115L420.816 252.564H423.812L507.264 111.226C511.401 104.088 514.896 99.305 517.749 96.878C520.602 94.3082 524.311 93.0233 528.876 93.0233H529.946L530.801 89.8111H497.421L496.565 93.0233H500.203C502.342 93.0233 503.84 93.3802 504.696 94.0941C505.552 94.8079 505.98 95.95 505.98 97.5204C505.98 100.519 504.339 104.944 501.058 110.798L437.079 220.87L439.647 153.413L467.678 109.084C471.672 102.946 475.096 98.7339 477.949 96.4497C480.802 94.1655 483.869 93.0233 487.15 93.0233H488.22L488.862 89.8111H459.333L458.477 93.0233H460.189C464.04 93.0233 465.966 94.3082 465.966 96.878C465.966 99.7333 464.539 103.517 461.686 108.228L440.075 142.706L441.144 112.297C441.43 105.158 442.143 100.162 443.284 97.3063C444.568 94.451 447.207 93.0233 451.201 93.0233H453.769L454.839 89.8111H414.397L413.755 93.0233H416.323C420.175 93.0233 422.742 94.0227 424.026 96.0214C425.453 98.0201 426.166 101.589 426.166 106.729L425.952 112.511L424.026 162.621L388.078 221.298L393.213 112.297C393.499 106.872 393.998 102.803 394.711 100.09C395.567 97.3777 396.78 95.5217 398.349 94.5224C399.918 93.523 402.272 93.0233 405.41 93.0233H407.764L408.62 89.8111H365.61ZM57.8268 89.8111L57.1849 92.3809L61.4644 93.2375C65.1734 93.9513 67.9551 95.8786 69.8096 99.0195C71.6641 102.018 72.5913 105.587 72.5913 109.727C72.5913 112.582 72.306 115.58 71.7354 118.721C71.1648 121.862 70.2376 126.074 68.9537 131.356L45.844 223.654C41.8497 239.501 35.573 247.424 27.0139 247.424H24.4461L24.0182 250.422H67.2419L67.4558 247.424H59.7526C53.3333 247.424 50.1236 243.855 50.1236 236.717C50.1236 234.004 50.8368 229.65 52.2634 223.654L77.2989 122.576L120.523 250.422H136.785L130.366 231.363L157.541 116.58C159.538 108.442 161.606 102.517 163.746 98.8053C166.029 94.9507 169.452 93.0233 174.017 93.0233H176.585L177.441 89.8111H134.859L133.789 93.0233H141.492C149.196 93.0233 153.047 96.8066 153.047 104.373C153.047 107.657 152.477 111.726 151.335 116.58L126.728 220.656L82.8623 89.8111H57.8268ZM750.922 145.49C753.347 145.49 755.059 146.56 756.057 148.702C757.199 150.701 757.769 153.841 757.769 158.124C757.769 168.118 755.772 180.396 751.778 194.958C747.926 209.377 743.147 221.869 737.441 232.434C731.878 242.998 726.885 248.281 722.463 248.281C720.038 248.281 718.255 247.281 717.113 245.283C716.115 243.141 715.615 239.929 715.615 235.646C715.615 225.652 717.541 213.446 721.393 199.027C725.387 184.465 730.166 171.901 735.729 161.337C741.436 150.772 746.5 145.49 750.922 145.49ZM880.514 194.919C868.334 194.919 858.461 204.898 858.461 217.207C858.461 229.517 868.334 239.496 880.514 239.496C892.693 239.496 902.567 229.517 902.567 217.207C902.567 204.898 892.693 194.919 880.514 194.919ZM531.117 147.631C533.115 147.631 534.969 148.131 536.681 149.13C538.535 150.13 540.604 151.629 542.886 153.627L542.244 155.34C533.257 174.043 525.269 189.604 518.279 202.025C511.289 214.303 505.654 223.297 501.374 229.007C497.095 234.718 494.17 237.573 492.601 237.573C491.603 237.573 491.103 236.788 491.103 235.218C491.103 229.793 493.315 219.728 497.737 205.023C502.159 190.318 507.437 177.112 513.571 165.405C519.705 153.556 525.554 147.631 531.117 147.631ZM1203.74 145.704C1207.45 145.704 1209.3 148.987 1209.3 155.555C1209.3 162.122 1208.02 170.474 1205.45 180.61C1202.89 190.746 1199.6 199.598 1195.61 207.164C1191.62 214.588 1187.62 218.3 1183.63 218.3C1181.77 218.3 1180.35 217.372 1179.35 215.516C1178.49 213.517 1178.06 210.876 1178.06 207.593C1178.06 200.597 1179.42 192.174 1182.13 182.323C1184.84 172.33 1188.19 163.764 1192.19 156.625C1196.18 149.344 1200.03 145.704 1203.74 145.704ZM691.532 172.153C687.01 175.802 681.849 177.739 676.836 178.433C677.158 180.112 677.526 181.918 677.944 183.856L678.163 184.872C680.059 193.797 681.29 202.287 681.615 210.162C682.827 200.434 685.193 190.479 688.526 180.363L688.599 180.145C689.523 177.43 690.5 174.766 691.532 172.153ZM199.153 146.132C201.721 146.132 203.005 148.202 203.005 152.342C203.005 156.625 201.863 161.265 199.581 166.262C197.441 171.259 194.089 176.041 189.524 180.61C185.102 185.178 179.61 188.819 173.048 191.531C176.471 179.254 180.68 168.618 185.672 159.623C190.665 150.629 195.159 146.132 199.153 146.132ZM970.93 146.132C973.498 146.132 974.782 148.202 974.782 152.342L974.779 152.745C974.71 156.916 973.57 161.421 971.358 166.262C969.219 171.259 965.866 176.041 961.301 180.61C956.879 185.178 951.387 188.819 944.825 191.531C948.249 179.254 952.457 168.618 957.45 159.623C962.443 150.629 966.936 146.132 970.93 146.132ZM1024.27 146.132C1026.84 146.132 1028.13 148.202 1028.13 152.342C1028.13 156.625 1026.99 161.265 1024.7 166.262C1022.56 171.259 1019.21 176.041 1014.65 180.61C1010.22 185.178 1004.73 188.819 998.169 191.531C1001.59 179.254 1005.8 168.618 1010.79 159.623C1015.79 150.629 1020.28 146.132 1024.27 146.132ZM317.761 153.413C317.761 144.419 315.336 139.922 310.485 139.922C308.488 139.922 306.848 140.778 305.564 142.492C304.423 144.205 303.852 146.346 303.852 148.916C303.852 151.343 304.351 154.056 305.35 157.054C306.634 161.479 307.276 165.62 307.276 169.474C307.276 178.183 304.779 188.391 299.786 200.097C294.936 211.804 289.302 222.083 282.882 230.935C276.605 239.643 271.755 243.998 268.332 243.998C265.764 243.998 264.48 241.714 264.48 237.145C264.48 230.863 265.621 223.154 267.904 214.017C270.329 204.737 273.681 193.102 277.961 179.111C280.814 169.974 282.882 162.907 284.166 157.91C285.593 152.771 286.306 148.916 286.306 146.346C286.306 144.205 285.949 142.634 285.236 141.635C284.665 140.493 283.453 139.922 281.598 139.922C278.317 139.922 275.892 140.993 274.323 143.134L274.191 143.34C272.835 145.523 271.88 149.38 271.327 154.912C269.758 168.332 266.263 182.038 260.842 196.029C255.422 209.877 249.502 221.369 243.082 230.506C236.805 239.501 231.67 243.998 227.676 243.998C225.393 243.998 224.252 242.142 224.252 238.43C224.252 235.289 225.536 229.364 228.104 220.656L244.794 167.547C247.362 159.266 248.717 152.771 248.86 148.059C248.86 142.634 246.934 139.922 243.082 139.922C238.66 139.922 233.81 143.205 228.532 149.773C223.253 156.197 218.261 164.62 213.553 175.042L216.121 176.327C223.539 162.336 229.031 155.34 232.597 155.34C233.738 155.34 234.309 156.054 234.309 157.482C234.309 159.052 233.738 161.551 232.597 164.977L215.907 218.942C212.911 228.365 211.413 235.932 211.413 241.642C211.413 249.78 214.266 253.849 219.972 253.849C225.251 253.849 231.242 250.422 237.947 243.569C244.651 236.717 251.142 227.508 257.419 215.944C255.422 223.796 254.066 229.436 253.353 232.862C252.783 236.146 252.497 239.001 252.497 241.428C252.497 249.708 255.35 253.849 261.056 253.849C267.618 253.849 275.393 248.209 284.38 236.931C293.51 225.51 301.356 211.876 307.918 196.029C314.474 180.054 317.754 165.86 317.76 153.447L317.761 153.413ZM678.221 144.637C678.199 144.585 678.176 144.534 678.152 144.483L678.654 144.205L678.221 144.637ZM122.732 133.169L126.787 116.016C121.822 114.501 117.414 111.396 114.305 107.078C114.089 106.778 113.88 106.474 113.679 106.165L122.732 133.169ZM702.886 148.06C702.886 148.481 702.877 148.903 702.861 149.325C705.038 145.797 707.364 142.414 709.845 139.186L709.986 139.004C719.353 127.056 733.038 115.885 751.35 115.885L752.005 115.89C760.86 116.022 769.006 118.843 775.614 124.088L776.905 123.782C782.069 108.641 788.69 95.4033 797.457 85.3528C808.19 73.0484 822.613 63.6324 840.586 63.6324C848.039 63.6324 856.51 65.2774 864.113 70.549C866.684 72.254 869.218 74.4178 871.434 77.0355C872.939 75.7671 874.508 74.5583 876.141 73.412C886.067 66.2955 897.507 62.3478 909.928 62.3478C919.487 62.3478 929.155 64.5864 937.804 70.1756C945.474 74.9949 951.513 81.5486 955.809 89.389C958.693 94.6518 959.505 100.804 958.086 106.636L954.549 121.163C960.78 117.907 967.802 115.885 975.638 115.885L976.032 115.887C983.798 115.961 993.201 118.27 1000.61 125.748C1008.49 119.911 1017.93 115.885 1028.98 115.885L1029.38 115.887C1031.78 115.91 1050.45 123.071 1052.35 123.463C1051.58 120.622 1047.93 112.587 1047.93 109.513C1047.93 91.0628 1062.77 75.8112 1081.45 75.8112C1100.12 75.8112 1110.5 90.1163 1110.5 108.566C1110.5 112.314 1109.89 115.929 1108.76 119.311C1110 119.94 1128.45 121.147 1130.07 122.44C1135.79 118.895 1143.07 115.885 1151.55 115.885L1151.94 115.887C1159.72 115.977 1168.79 118.805 1175.39 126.706C1183.16 120.364 1192.85 115.885 1204.38 115.885L1204.81 115.887C1210.01 115.941 1215.33 116.989 1220.32 119.311H1234.98C1243.02 119.311 1250.53 123.337 1254.98 130.038C1259.43 136.738 1260.24 145.224 1257.13 152.644L1254.35 159.283C1252.13 164.58 1248.15 168.78 1243.27 171.321C1242.46 180.714 1240.21 190.038 1236.76 199.221C1232.48 210.953 1226.49 221.561 1218.43 230.477C1216.39 232.765 1214.15 234.969 1211.71 236.996C1213.97 239.15 1216.07 241.461 1217.95 243.947L1218.43 244.592L1218.68 244.941C1224.65 253.435 1227.12 263.089 1227.12 272.694C1227.12 284.085 1223.96 294.965 1217.34 304.498C1211.19 313.55 1202.89 320.345 1193.11 324.898C1183.78 329.309 1173.81 331.423 1163.51 331.423C1151.96 331.423 1139.71 328.998 1129.38 321.397C1117.47 312.629 1112.32 299.693 1112.32 286.399C1112.32 283.285 1112.59 280.249 1113.11 277.303C1108.15 276.284 1103.18 273.88 1099.12 269.715C1095.06 272.729 1090.07 274.459 1084.79 274.459H1073.24C1067.71 274.459 1062.43 272.558 1058.22 269.179C1057.74 269.565 1057.26 269.941 1056.77 270.304C1053.51 272.758 1046.12 277.886 1036.32 277.886C1029.92 277.886 1022.51 275.675 1016.77 269.903C1010.27 274.592 1002.3 277.886 992.82 277.886C982.621 277.886 973.653 273.896 967.132 266.961C960.034 273.155 950.835 277.885 939.476 277.886C928.491 277.886 918.933 273.257 912.324 265.305C911.384 266.011 910.424 266.695 909.442 267.357C909.342 267.425 909.241 267.492 909.14 267.558C898.989 274.184 887.558 277.886 875.263 277.886C855.04 277.886 836.713 270.451 824.166 253.709C819.737 247.798 818.27 240.177 820.187 233.042L830.03 196.423L830.167 195.933C833.149 185.7 842.532 178.63 853.224 178.63H854.986C856.463 177.639 858.001 176.731 859.593 175.913C857.203 172.458 855.076 169.04 853.26 165.666C853.221 165.592 853.181 165.517 853.142 165.443C852.124 163.501 851.226 161.521 850.44 159.51C846.666 168.271 838.023 174.024 828.389 174.024H825.546L805.554 247.329C805.551 247.339 805.548 247.35 805.546 247.36C798.898 271.605 790.658 292.2 779.527 306.126C779.483 306.18 779.44 306.234 779.396 306.288C768.217 320.028 752.973 330.138 733.81 330.138C726.497 330.138 717.33 328.782 709.206 323.067C700.803 317.305 695.028 307.937 695.028 296.464C695.028 288.841 697.772 281.665 702.806 275.997C703.423 275.303 704.059 274.65 704.711 274.038C698.113 270.853 692.489 265.738 688.4 258.868C682.554 249.043 680.861 237.345 680.699 226.527C679.541 233.397 677.348 240.057 673.942 246.34C669.028 255.659 662.068 263.544 652.963 269.246C644.063 274.91 634.062 277.886 623.447 277.886C618.761 277.886 613.291 277.128 607.917 274.71C604.408 280.402 600.762 285.927 596.977 291.283C589.167 302.337 580.859 311.884 571.891 318.864C562.937 325.834 551.767 331.423 538.851 331.423C533.05 331.423 524.239 330.333 516.581 324.062C508.457 317.41 505.51 308.252 505.42 300.27L505.418 299.891L505.42 299.513C505.509 291.608 508.392 284.13 513.769 278.192C513.89 278.058 514.011 277.926 514.134 277.796C509.209 277.398 504.159 275.667 499.838 272.365C495.044 275.319 488.834 277.886 481.474 277.886C477.104 277.886 471.991 276.934 467.034 274.062C462.503 271.437 459.226 267.857 456.99 264.163C454.255 259.861 452.943 255.402 452.347 251.484L444.49 264.792C440.169 272.111 432.306 276.601 423.812 276.601H420.816C414.289 276.601 408.043 273.942 403.516 269.237C400.989 266.61 399.118 263.472 398.002 260.076L394.772 265.269C390.387 272.316 382.679 276.601 374.383 276.601H371.388C364.827 276.601 358.551 273.915 354.019 269.167C349.488 264.418 347.094 258.022 347.395 251.462L353.679 114.352C350.606 112.753 347.874 110.489 345.708 107.668C341.162 101.746 339.625 94.0456 341.547 86.83L342.403 83.6175L342.539 83.1267C345.504 72.8683 354.899 65.7741 365.61 65.7741H408.62C409.591 65.7741 410.554 65.8338 411.506 65.9491C412.456 65.8344 413.42 65.7741 414.397 65.7741H454.839C455.594 65.7741 456.344 65.8101 457.087 65.8799C457.828 65.8107 458.577 65.7741 459.333 65.7741H488.862C490.308 65.7741 491.739 65.9049 493.14 66.1586C494.534 65.9064 495.965 65.7741 497.421 65.7741H530.802C538.263 65.7741 545.302 69.2451 549.848 75.167C554.393 81.0888 555.931 88.7887 554.008 96.0043L553.153 99.2168C551.007 107.27 544.926 113.448 537.312 115.904C537.741 115.892 538.173 115.885 538.607 115.885L539.003 115.887C540.588 115.905 542.155 116.031 543.696 116.242C548.676 112.246 555.091 110.366 561.527 111.124L565.165 111.552C569.547 112.068 573.644 113.773 577.053 116.412C578.84 116.076 580.73 115.885 582.716 115.885L583.107 115.887C591.511 115.992 597.646 119.463 601.966 123.522C607.993 118.169 615.448 115.885 622.516 115.885L623.017 115.889C630.45 116.005 637.382 118.717 642.745 123.599C650.608 118.761 659.55 115.885 669.239 115.885L669.886 115.89C676.348 115.995 683.932 117.701 690.631 122.927C699.659 129.644 702.886 139.542 702.886 148.06Z" fill="black"/>
<path d="M801.691 347.444C801.691 338.514 808.925 331.274 817.848 331.274H837.063C845.986 331.274 853.22 338.514 853.22 347.444C853.22 356.375 845.986 363.615 837.063 363.615H817.848C808.925 363.615 801.691 356.375 801.691 347.444Z" fill="black"/>
<path d="M810.755 356.622L816.999 339.796H819.401L825.406 356.622H823.148L821.635 352.151H814.573L813.012 356.622H810.755ZM815.222 350.349H821.034L818.176 341.888L815.222 350.349Z" fill="white"/>
<path d="M835.347 347.608V350.156H833.33V348.69C833.33 346.959 832.898 346.551 831.384 346.551C830.039 346.551 829.295 347.248 829.295 349.363V356.622H827.229V345.084H829.295V346.599C829.967 345.349 830.952 344.844 832.321 344.844C834.146 344.844 835.347 345.83 835.347 347.608Z" fill="white"/>
<path d="M841.385 356.622C839.223 356.622 838.694 355.853 838.694 353.738V346.767H836.317V345.084H837.734C838.574 345.084 838.791 344.7 838.791 344.003V342.08H840.76V345.084H843.522V346.767H840.76V353.521C840.76 354.627 841.096 354.94 842.177 354.94H843.522V356.622H841.385Z" fill="white"/>
<path d="M916.977 396.83C916.977 387.899 924.211 380.659 933.135 380.659H1034.88C1043.81 380.659 1051.04 387.899 1051.04 396.83C1051.04 405.76 1043.81 413 1034.88 413H933.135C924.211 413 916.977 405.76 916.977 396.83Z" fill="black"/>
<path d="M848.417 364.052C848.417 355.121 855.651 347.882 864.574 347.882H931.388C940.312 347.882 947.546 355.121 947.546 364.052C947.546 372.983 940.312 380.222 931.388 380.222H864.574C855.651 380.222 848.417 372.983 848.417 364.052Z" fill="black"/>
<path d="M926.086 390.547V388.744H939.536V390.547H933.891V405.57H931.73V390.547H926.086Z" fill="white"/>
<path d="M943.626 405.811C940.359 405.811 938.27 403.551 938.27 400.018C938.27 396.22 940.359 393.792 943.746 393.792C946.676 393.792 948.693 395.932 948.693 399.225V400.234H940.359C940.431 403.022 941.344 404.104 943.626 404.104C945.427 404.104 946.195 403.527 946.556 402.013H948.405C948.069 404.248 946.364 405.811 943.626 405.811ZM940.407 398.792H946.652C946.676 396.484 945.811 395.499 943.602 395.499C941.536 395.499 940.599 396.412 940.407 398.792Z" fill="white"/>
<path d="M955.699 404.104C957.717 404.104 958.533 403.215 958.75 401.34H960.767C960.575 404.008 958.605 405.811 955.699 405.811C952.457 405.811 950.343 403.671 950.343 399.97C950.343 396.22 952.457 393.792 955.699 393.792C958.942 393.792 960.767 395.643 960.767 398.504H958.798C958.774 396.316 957.981 395.499 955.699 395.499C953.321 395.499 952.433 396.701 952.433 399.826C952.433 402.926 953.321 404.104 955.699 404.104Z" fill="white"/>
<path d="M970.874 398.311C970.874 396.316 970.153 395.499 968.304 395.499C966.046 395.499 965.181 396.484 965.181 399.032V405.57H963.116V388.023H965.181V395.908C965.926 394.465 967.295 393.792 969.096 393.792C971.282 393.792 972.939 395.018 972.939 397.374V405.57H970.874V398.311Z" fill="white"/>
<path d="M975.94 405.57V394.033H978.006V395.908C978.75 394.465 980.119 393.792 981.921 393.792C984.106 393.792 985.763 395.018 985.763 397.374V405.57H983.698V398.311C983.698 396.316 982.977 395.499 981.128 395.499C978.87 395.499 978.006 396.484 978.006 399.032V405.57H975.94Z" fill="white"/>
<path d="M993.609 405.811C990.342 405.811 988.277 403.383 988.277 399.801C988.277 396.22 990.342 393.792 993.609 393.792C996.875 393.792 998.941 396.22 998.941 399.801C998.941 403.383 996.875 405.811 993.609 405.811ZM993.609 404.104C995.963 404.104 996.851 402.902 996.851 399.801C996.851 396.701 995.963 395.499 993.609 395.499C991.255 395.499 990.366 396.701 990.366 399.801C990.366 402.902 991.255 404.104 993.609 404.104Z" fill="white"/>
<path d="M1003.73 388.023V405.57H1001.66V388.023H1003.73Z" fill="white"/>
<path d="M1011.78 405.811C1008.51 405.811 1006.44 403.383 1006.44 399.801C1006.44 396.22 1008.51 393.792 1011.78 393.792C1015.04 393.792 1017.11 396.22 1017.11 399.801C1017.11 403.383 1015.04 405.811 1011.78 405.811ZM1011.78 404.104C1014.13 404.104 1015.02 402.902 1015.02 399.801C1015.02 396.701 1014.13 395.499 1011.78 395.499C1009.42 395.499 1008.53 396.701 1008.53 399.801C1008.53 402.902 1009.42 404.104 1011.78 404.104Z" fill="white"/>
<path d="M1024.27 410.979C1021.41 410.979 1019.87 409.729 1019.66 407.445H1021.72C1021.84 408.984 1022.61 409.368 1024.44 409.368C1026.55 409.368 1027.2 408.455 1027.2 406.412V403.479C1026.46 404.897 1025.21 405.57 1023.77 405.57C1020.86 405.57 1018.99 403.215 1018.99 399.657C1018.99 396.148 1020.86 393.792 1023.77 393.792C1025.21 393.792 1026.43 394.465 1027.2 395.883V394.033H1029.27V406.364C1029.27 409.176 1027.75 410.979 1024.27 410.979ZM1021.05 399.681C1021.05 402.686 1021.72 403.864 1024.15 403.864C1026.34 403.864 1027.2 402.926 1027.2 400.426V398.96C1027.2 396.46 1026.34 395.499 1024.15 395.499C1021.72 395.499 1021.05 396.677 1021.05 399.681Z" fill="white"/>
<path d="M1031.3 394.033H1033.47L1036.56 403.119L1039.85 394.033H1041.85L1036.3 408.743C1035.65 410.474 1035.19 410.738 1033.66 410.738H1032.14V409.056H1033.27C1034.28 409.056 1034.38 408.984 1034.76 407.974L1035.65 405.618L1031.3 394.033Z" fill="white"/>
<path d="M864.787 373.47C860.056 373.47 858.278 371.427 858.158 367.917H860.44C860.584 370.754 861.425 371.571 864.667 371.571C867.645 371.571 868.558 370.922 868.558 368.542C868.558 366.932 867.861 366.139 865.748 365.898L863.85 365.682C860.656 365.321 858.735 363.999 858.735 360.875C858.735 358.038 860.944 356.163 864.499 356.163C868.15 356.163 870.455 358.206 870.6 361.403H868.318C868.102 358.807 867.213 358.062 864.331 358.062C861.665 358.062 860.92 358.855 860.92 360.851C860.92 362.653 861.833 363.23 864.283 363.495L866.324 363.711C869.351 364.023 870.744 365.898 870.744 368.326C870.744 371.86 868.39 373.47 864.787 373.47Z" fill="white"/>
<path d="M878.054 371.763C880.071 371.763 880.888 370.874 881.104 368.999H883.121C882.929 371.667 880.96 373.47 878.054 373.47C874.811 373.47 872.698 371.331 872.698 367.629C872.698 363.879 874.811 361.451 878.054 361.451C881.296 361.451 883.121 363.302 883.121 366.163H881.152C881.128 363.975 880.335 363.158 878.054 363.158C875.676 363.158 874.787 364.36 874.787 367.485C874.787 370.586 875.676 371.763 878.054 371.763Z" fill="white"/>
<path d="M885.518 373.23V361.692H887.584V373.23H885.518ZM886.551 356.115C887.44 356.115 888.112 356.74 888.112 357.654C888.112 358.567 887.464 359.24 886.551 359.24C885.638 359.24 884.99 358.567 884.99 357.654C884.99 356.74 885.662 356.115 886.551 356.115Z" fill="white"/>
<path d="M895.657 373.47C892.391 373.47 890.301 371.211 890.301 367.677C890.301 363.879 892.391 361.451 895.777 361.451C898.707 361.451 900.725 363.591 900.725 366.884V367.893H892.391C892.463 370.682 893.375 371.763 895.657 371.763C897.458 371.763 898.227 371.186 898.587 369.672H900.437C900.1 371.908 898.395 373.47 895.657 373.47ZM892.439 366.451H898.683C898.707 364.144 897.843 363.158 895.633 363.158C893.568 363.158 892.631 364.072 892.439 366.451Z" fill="white"/>
<path d="M903.167 373.23V361.692H905.233V363.567C905.977 362.125 907.346 361.451 909.148 361.451C911.333 361.451 912.991 362.677 912.991 365.033V373.23H910.925V365.97C910.925 363.975 910.205 363.158 908.355 363.158C906.098 363.158 905.233 364.144 905.233 366.692V373.23H903.167Z" fill="white"/>
<path d="M920.86 371.763C922.878 371.763 923.694 370.874 923.91 368.999H925.928C925.736 371.667 923.766 373.47 920.86 373.47C917.618 373.47 915.504 371.331 915.504 367.629C915.504 363.879 917.618 361.451 920.86 361.451C924.102 361.451 925.928 363.302 925.928 366.163H923.958C923.934 363.975 923.142 363.158 920.86 363.158C918.482 363.158 917.594 364.36 917.594 367.485C917.594 370.586 918.482 371.763 920.86 371.763Z" fill="white"/>
<path d="M932.84 373.47C929.573 373.47 927.484 371.211 927.484 367.677C927.484 363.879 929.573 361.451 932.96 361.451C935.89 361.451 937.908 363.591 937.908 366.884V367.893H929.573C929.646 370.682 930.558 371.763 932.84 371.763C934.641 371.763 935.41 371.186 935.77 369.672H937.62C937.283 371.908 935.578 373.47 932.84 373.47ZM929.621 366.451H935.866C935.89 364.144 935.026 363.158 932.816 363.158C930.75 363.158 929.814 364.072 929.621 366.451Z" fill="white"/>
<path d="M1047.55 381.096C1047.55 372.166 1054.78 364.926 1063.71 364.926H1124.41C1133.33 364.926 1140.56 372.166 1140.56 381.096C1140.56 390.027 1133.33 397.267 1124.41 397.267H1063.71C1054.78 397.267 1047.55 390.027 1047.55 381.096Z" fill="black"/>
<path d="M1126.91 389.334C1123.65 389.334 1121.56 387.075 1121.56 383.542C1121.56 379.744 1123.65 377.316 1127.03 377.316C1129.96 377.316 1131.98 379.455 1131.98 382.748V383.758H1123.65C1123.72 386.546 1124.63 387.628 1126.91 387.628C1128.71 387.628 1129.48 387.051 1129.84 385.537H1131.69C1131.36 387.772 1129.65 389.334 1126.91 389.334ZM1123.69 382.316H1129.94C1129.96 380.008 1129.1 379.023 1126.89 379.023C1124.82 379.023 1123.89 379.936 1123.69 382.316Z" fill="white"/>
<path d="M1120.06 380.08V382.628H1118.04V381.162C1118.04 379.431 1117.61 379.023 1116.1 379.023C1114.75 379.023 1114.01 379.72 1114.01 381.835V389.094H1111.94V377.556H1114.01V379.071C1114.68 377.821 1115.66 377.316 1117.03 377.316C1118.86 377.316 1120.06 378.301 1120.06 380.08Z" fill="white"/>
<path d="M1102.7 389.334C1100.32 389.334 1098.9 388.181 1098.9 385.729V377.556H1100.97V385.032C1100.97 386.883 1101.62 387.628 1103.3 387.628C1105.56 387.628 1106.42 386.642 1106.42 384.094V377.556H1108.49V389.094H1106.42V387.267C1105.7 388.685 1104.35 389.334 1102.7 389.334Z" fill="white"/>
<path d="M1094.45 389.094C1092.29 389.094 1091.76 388.325 1091.76 386.21V379.239H1089.38V377.556H1090.8C1091.64 377.556 1091.86 377.172 1091.86 376.475V374.552H1093.82V377.556H1096.59V379.239H1093.82V385.993C1093.82 387.099 1094.16 387.411 1095.24 387.411H1096.59V389.094H1094.45Z" fill="white"/>
<path d="M1087.19 371.547V389.094H1085.13V371.547H1087.19Z" fill="white"/>
<path d="M1075.83 389.334C1073.46 389.334 1072.04 388.181 1072.04 385.729V377.556H1074.11V385.032C1074.11 386.883 1074.75 387.628 1076.44 387.628C1078.69 387.628 1079.56 386.642 1079.56 384.094V377.556H1081.62V389.094H1079.56V387.267C1078.84 388.685 1077.49 389.334 1075.83 389.334Z" fill="white"/>
<path d="M1063.5 389.334C1059.3 389.334 1056.13 386.594 1056.13 380.681C1056.13 374.912 1059.28 372.028 1063.62 372.028C1066.89 372.028 1069.2 374.047 1069.56 376.739H1067.23C1066.94 374.792 1066.07 373.951 1063.65 373.951C1059.83 373.951 1058.65 375.681 1058.65 380.681C1058.65 385.681 1059.8 387.411 1063.62 387.411C1066.22 387.411 1066.91 386.426 1067.2 384.623H1069.65C1069.08 387.387 1066.84 389.334 1063.5 389.334Z" fill="white"/>
<path d="M99.9283 16.1704C99.9283 7.23972 107.162 0 116.086 0H353.209C362.133 0 369.367 7.23972 369.367 16.1704C369.367 25.101 362.133 32.3407 353.209 32.3407H116.086C107.162 32.3407 99.9283 25.101 99.9283 16.1704Z" fill="black"/>
<path d="M369.367 16.1704C369.367 7.23972 376.601 0 385.524 0H424.39C433.313 0 440.547 7.23972 440.547 16.1704C440.547 25.101 433.313 32.3407 424.39 32.3407H385.524C376.601 32.3407 369.367 25.101 369.367 16.1704Z" fill="black"/>
<path d="M110.856 8.52222H113.017V25.3481H110.856V8.52222Z" fill="white"/>
<path d="M116.823 25.3481V13.8104H118.889V15.6853C119.634 14.243 121.003 13.57 122.804 13.57C124.99 13.57 126.647 14.7959 126.647 17.1515V25.3481H124.581V18.089C124.581 16.0939 123.861 15.2766 122.011 15.2766C119.754 15.2766 118.889 16.2621 118.889 18.8101V25.3481H116.823Z" fill="white"/>
<path d="M133.699 25.3481C131.538 25.3481 131.009 24.579 131.009 22.4637V15.493H128.632V13.8104H130.049C130.889 13.8104 131.105 13.4258 131.105 12.7287V10.8057H133.075V13.8104H135.837V15.493H133.075V22.2474C133.075 23.3531 133.411 23.6656 134.492 23.6656H135.837V25.3481H133.699Z" fill="white"/>
<path d="M142.743 25.5885C139.477 25.5885 137.387 23.329 137.387 19.7956C137.387 15.9977 139.477 13.57 142.863 13.57C145.793 13.57 147.811 15.7093 147.811 19.0024V20.0119H139.477C139.549 22.8002 140.461 23.8819 142.743 23.8819C144.545 23.8819 145.313 23.305 145.673 21.7907H147.523C147.186 24.0261 145.481 25.5885 142.743 25.5885ZM139.525 18.5697H145.769C145.793 16.2621 144.929 15.2766 142.719 15.2766C140.654 15.2766 139.717 16.19 139.525 18.5697Z" fill="white"/>
<path d="M158.372 16.3343V18.8822H156.354V17.4159C156.354 15.6853 155.922 15.2766 154.409 15.2766C153.064 15.2766 152.319 15.9737 152.319 18.089V25.3481H150.253V13.8104H152.319V15.3247C152.992 14.0748 153.976 13.57 155.345 13.57C157.171 13.57 158.372 14.5555 158.372 16.3343Z" fill="white"/>
<path d="M164.649 25.5885C161.743 25.5885 159.869 23.2329 159.869 19.5552C159.869 15.9256 161.743 13.57 164.649 13.57C166.09 13.57 167.315 14.243 168.083 15.6612V7.80111H170.149V25.3481H168.083V23.4973C167.339 24.9155 166.09 25.5885 164.649 25.5885ZM161.935 19.5793C161.935 22.7041 162.607 23.8819 165.033 23.8819C167.219 23.8819 168.083 22.9444 168.083 20.4446V18.738C168.083 16.2381 167.219 15.2766 165.033 15.2766C162.607 15.2766 161.935 16.4544 161.935 19.5793Z" fill="white"/>
<path d="M173.652 25.3481V13.8104H175.717V25.3481H173.652ZM174.684 8.23378C175.573 8.23378 176.245 8.85874 176.245 9.77215C176.245 10.6856 175.597 11.3586 174.684 11.3586C173.772 11.3586 173.123 10.6856 173.123 9.77215C173.123 8.85874 173.796 8.23378 174.684 8.23378Z" fill="white"/>
<path d="M183.094 25.5885C180.524 25.5885 178.338 24.603 178.29 21.7426H180.38C180.476 23.5454 181.221 24.0501 183.022 24.0501C185.087 24.0501 185.568 23.5454 185.568 22.2233C185.568 21.1176 184.967 20.6369 183.574 20.4927L182.061 20.3244C179.731 20.06 178.675 18.9543 178.675 16.9833C178.675 14.9401 180.284 13.57 182.974 13.57C185.616 13.57 187.345 15.0122 187.465 17.1996H185.376C185.256 15.6853 184.679 15.1084 182.878 15.1084C181.173 15.1084 180.572 15.5891 180.572 16.839C180.572 17.9688 181.197 18.3293 182.614 18.4736L183.935 18.6178C186.264 18.9062 187.465 20.036 187.465 22.1993C187.465 24.3386 185.808 25.5885 183.094 25.5885Z" fill="white"/>
<path d="M194.715 23.8819C196.732 23.8819 197.549 22.9925 197.765 21.1176H199.783C199.591 23.7857 197.621 25.5885 194.715 25.5885C191.473 25.5885 189.359 23.4492 189.359 19.7475C189.359 15.9977 191.473 13.57 194.715 13.57C197.957 13.57 199.783 15.4209 199.783 18.2813H197.813C197.789 16.0939 196.997 15.2766 194.715 15.2766C192.337 15.2766 191.449 16.4785 191.449 19.6033C191.449 22.7041 192.337 23.8819 194.715 23.8819Z" fill="white"/>
<path d="M202.179 25.3481V13.8104H204.245V25.3481H202.179ZM203.212 8.23378C204.101 8.23378 204.773 8.85874 204.773 9.77215C204.773 10.6856 204.125 11.3586 203.212 11.3586C202.3 11.3586 201.651 10.6856 201.651 9.77215C201.651 8.85874 202.324 8.23378 203.212 8.23378Z" fill="white"/>
<path d="M213.255 25.5885C211.814 25.5885 210.565 24.9155 209.821 23.4973V30.5161H207.755V13.8104H209.821V15.6612C210.589 14.243 211.814 13.57 213.255 13.57C216.161 13.57 218.035 15.9256 218.035 19.5552C218.035 23.2329 216.161 25.5885 213.255 25.5885ZM209.821 20.4446C209.821 22.9444 210.685 23.8819 212.871 23.8819C215.297 23.8819 215.969 22.7041 215.969 19.5793C215.969 16.4544 215.297 15.2766 212.871 15.2766C210.685 15.2766 209.821 16.2381 209.821 18.738V20.4446Z" fill="white"/>
<path d="M222.81 7.80111V25.3481H220.745V7.80111H222.81Z" fill="white"/>
<path d="M226.368 25.3481V13.8104H228.434V25.3481H226.368ZM227.401 8.23378C228.29 8.23378 228.962 8.85874 228.962 9.77215C228.962 10.6856 228.314 11.3586 227.401 11.3586C226.488 11.3586 225.84 10.6856 225.84 9.77215C225.84 8.85874 226.512 8.23378 227.401 8.23378Z" fill="white"/>
<path d="M231.944 25.3481V13.8104H234.009V15.6853C234.754 14.243 236.123 13.57 237.924 13.57C240.11 13.57 241.767 14.7959 241.767 17.1515V25.3481H239.702V18.089C239.702 16.0939 238.981 15.2766 237.132 15.2766C234.874 15.2766 234.009 16.2621 234.009 18.8101V25.3481H231.944Z" fill="white"/>
<path d="M251.558 19.0745C251.294 19.5312 250.861 19.8196 250.165 19.9158L248.075 20.1802C246.922 20.3244 246.394 20.9734 246.394 22.1993C246.394 23.3531 247.042 23.978 248.412 23.978C250.237 23.978 251.558 22.2233 251.558 20.9253V19.0745ZM251.558 25.3481V23.1608C250.837 24.7953 249.732 25.5885 248.075 25.5885C245.842 25.5885 244.352 24.2665 244.352 22.2233C244.352 20.3004 245.721 18.9783 247.859 18.7139L250.453 18.4014C250.981 18.3293 251.318 18.1851 251.558 17.9447V16.9592C251.558 15.7333 250.813 15.1805 249.18 15.1805C247.379 15.1805 246.586 15.6853 246.586 17.3438H244.617C244.617 14.892 246.082 13.57 249.18 13.57C252.086 13.57 253.623 14.868 253.623 16.791V25.3481H251.558Z" fill="white"/>
<path d="M265.03 16.3343V18.8822H263.013V17.4159C263.013 15.6853 262.58 15.2766 261.067 15.2766C259.722 15.2766 258.978 15.9737 258.978 18.089V25.3481H256.912V13.8104H258.978V15.3247C259.65 14.0748 260.635 13.57 262.004 13.57C263.829 13.57 265.03 14.5555 265.03 16.3343Z" fill="white"/>
<path d="M265.928 13.8104H268.089L271.188 22.8964L274.478 13.8104H276.471L270.923 28.521C270.275 30.2517 269.819 30.5161 268.281 30.5161H266.768V28.8335H267.897C268.906 28.8335 269.002 28.7614 269.386 27.7519L270.275 25.3962L265.928 13.8104Z" fill="white"/>
<path d="M284.205 8.52222H295.013V10.325H286.367V16.2141H294.533V18.0169H286.367V25.3481H284.205V8.52222Z" fill="white"/>
<path d="M301.89 25.5885C298.623 25.5885 296.534 23.329 296.534 19.7956C296.534 15.9977 298.623 13.57 302.01 13.57C304.94 13.57 306.957 15.7093 306.957 19.0024V20.0119H298.623C298.695 22.8002 299.608 23.8819 301.89 23.8819C303.691 23.8819 304.46 23.305 304.82 21.7907H306.669C306.333 24.0261 304.628 25.5885 301.89 25.5885ZM298.671 18.5697H304.916C304.94 16.2621 304.075 15.2766 301.866 15.2766C299.8 15.2766 298.863 16.19 298.671 18.5697Z" fill="white"/>
<path d="M313.267 25.5885C310.697 25.5885 308.511 24.603 308.463 21.7426H310.553C310.649 23.5454 311.393 24.0501 313.195 24.0501C315.26 24.0501 315.741 23.5454 315.741 22.2233C315.741 21.1176 315.14 20.6369 313.747 20.4927L312.234 20.3244C309.904 20.06 308.848 18.9543 308.848 16.9833C308.848 14.9401 310.457 13.57 313.147 13.57C315.789 13.57 317.518 15.0122 317.638 17.1996H315.549C315.429 15.6853 314.852 15.1084 313.051 15.1084C311.345 15.1084 310.745 15.5891 310.745 16.839C310.745 17.9688 311.369 18.3293 312.787 18.4736L314.108 18.6178C316.437 18.9062 317.638 20.036 317.638 22.1993C317.638 24.3386 315.981 25.5885 313.267 25.5885Z" fill="white"/>
<path d="M323.977 25.3481C321.816 25.3481 321.287 24.579 321.287 22.4637V15.493H318.91V13.8104H320.327C321.167 13.8104 321.383 13.4258 321.383 12.7287V10.8057H323.353V13.8104H326.115V15.493H323.353V22.2474C323.353 23.3531 323.689 23.6656 324.77 23.6656H326.115V25.3481H323.977Z" fill="white"/>
<path d="M328.271 25.3481V13.8104H330.337V25.3481H328.271ZM329.304 8.23378C330.193 8.23378 330.865 8.85874 330.865 9.77215C330.865 10.6856 330.217 11.3586 329.304 11.3586C328.391 11.3586 327.743 10.6856 327.743 9.77215C327.743 8.85874 328.415 8.23378 329.304 8.23378Z" fill="white"/>
<path d="M338.602 25.3481H336.801L332.454 13.8104H334.615L337.762 23.0166L341.004 13.8104H342.998L338.602 25.3481Z" fill="white"/>
<path d="M351.256 19.0745C350.992 19.5312 350.56 19.8196 349.863 19.9158L347.773 20.1802C346.621 20.3244 346.092 20.9734 346.092 22.1993C346.092 23.3531 346.741 23.978 348.11 23.978C349.935 23.978 351.256 22.2233 351.256 20.9253V19.0745ZM351.256 25.3481V23.1608C350.536 24.7953 349.431 25.5885 347.773 25.5885C345.54 25.5885 344.051 24.2665 344.051 22.2233C344.051 20.3004 345.42 18.9783 347.557 18.7139L350.151 18.4014C350.68 18.3293 351.016 18.1851 351.256 17.9447V16.9592C351.256 15.7333 350.512 15.1805 348.878 15.1805C347.077 15.1805 346.284 15.6853 346.284 17.3438H344.315C344.315 14.892 345.78 13.57 348.878 13.57C351.784 13.57 353.322 14.868 353.322 16.791V25.3481H351.256Z" fill="white"/>
<path d="M358.724 7.80111V25.3481H356.658V7.80111H358.724Z" fill="white"/>
<path d="M380.286 8.52222H386.002C390.062 8.52222 392.055 10.349 392.055 13.6902C392.055 17.1756 390.038 19.0264 386.026 19.0264H382.448V25.3481H380.286V8.52222ZM382.448 17.2236H386.075C388.524 17.2236 389.653 16.2621 389.653 13.7142C389.653 11.2384 388.524 10.325 386.075 10.325H382.448V17.2236Z" fill="white"/>
<path d="M400.784 19.0745C400.519 19.5312 400.087 19.8196 399.391 19.9158L397.301 20.1802C396.148 20.3244 395.62 20.9734 395.62 22.1993C395.62 23.3531 396.268 23.978 397.637 23.978C399.463 23.978 400.784 22.2233 400.784 20.9253V19.0745ZM400.784 25.3481V23.1608C400.063 24.7953 398.958 25.5885 397.301 25.5885C395.067 25.5885 393.578 24.2665 393.578 22.2233C393.578 20.3004 394.947 18.9783 397.085 18.7139L399.679 18.4014C400.207 18.3293 400.543 18.1851 400.784 17.9447V16.9592C400.784 15.7333 400.039 15.1805 398.406 15.1805C396.605 15.1805 395.812 15.6853 395.812 17.3438H393.842C393.842 14.892 395.308 13.57 398.406 13.57C401.312 13.57 402.849 14.868 402.849 16.791V25.3481H400.784Z" fill="white"/>
<path d="M414.256 16.3343V18.8822H412.239V17.4159C412.239 15.6853 411.806 15.2766 410.293 15.2766C408.948 15.2766 408.204 15.9737 408.204 18.089V25.3481H406.138V13.8104H408.204V15.3247C408.876 14.0748 409.861 13.57 411.23 13.57C413.055 13.57 414.256 14.5555 414.256 16.3343Z" fill="white"/>
<path d="M416.594 25.3481V13.8104H418.66V25.3481H416.594ZM417.627 8.23378C418.516 8.23378 419.188 8.85874 419.188 9.77215C419.188 10.6856 418.54 11.3586 417.627 11.3586C416.715 11.3586 416.066 10.6856 416.066 9.77215C416.066 8.85874 416.739 8.23378 417.627 8.23378Z" fill="white"/>
<path d="M426.037 25.5885C423.467 25.5885 421.281 24.603 421.233 21.7426H423.323C423.419 23.5454 424.164 24.0501 425.965 24.0501C428.03 24.0501 428.511 23.5454 428.511 22.2233C428.511 21.1176 427.91 20.6369 426.517 20.4927L425.004 20.3244C422.674 20.06 421.618 18.9543 421.618 16.9833C421.618 14.9401 423.227 13.57 425.917 13.57C428.559 13.57 430.288 15.0122 430.408 17.1996H428.319C428.199 15.6853 427.622 15.1084 425.821 15.1084C424.115 15.1084 423.515 15.5891 423.515 16.839C423.515 17.9688 424.139 18.3293 425.557 18.4736L426.878 18.6178C429.207 18.9062 430.408 20.036 430.408 22.1993C430.408 24.3386 428.751 25.5885 426.037 25.5885Z" fill="white"/>
<path d="M1073.34 114.652C1075.05 116.223 1077.26 117.008 1079.97 117.008C1082.54 117.008 1084.68 116.223 1086.39 114.652C1088.25 112.939 1089.17 110.726 1089.17 108.014C1089.17 105.301 1088.25 103.088 1086.39 101.375C1084.68 99.6619 1082.54 98.8053 1079.97 98.8053C1077.26 98.8053 1075.05 99.6619 1073.34 101.375C1071.63 103.088 1070.77 105.301 1070.77 108.014C1070.77 110.726 1071.63 112.939 1073.34 114.652Z" fill="white"/>
</svg>
