<svg width="406" height="651" viewBox="0 0 406 651" fill="none" xmlns="http://www.w3.org/2000/svg">
<path d="M275.628 371.175C287.802 436.42 274.444 493.996 245.792 499.776C217.14 505.556 184.044 457.351 171.869 392.107C159.695 326.862 173.053 269.286 201.705 263.506C230.357 257.726 263.453 305.931 275.628 371.175Z" fill="black"/>
<path d="M224.466 407.996C224.466 449.191 193.954 482.585 156.315 482.585C118.677 482.585 88.1644 449.191 88.1644 407.996C88.1644 366.801 118.677 333.406 156.315 333.406C193.954 333.406 224.466 366.801 224.466 407.996Z" fill="black"/>
<path d="M232.653 203.854C232.653 199.424 233.758 193.68 235.967 186.46L248.278 145.108C249.067 142.646 249.54 140.677 249.54 139.364C249.54 138.216 249.225 137.723 248.278 137.723C245.595 137.723 241.807 142.646 236.125 153.805L234.231 152.82C240.86 137.395 249.225 125.908 256.011 125.908C259.167 125.908 260.272 128.206 260.272 132.144C260.114 136.082 259.01 141.169 257.274 147.077L244.963 187.773C243.227 193.845 242.123 198.439 242.123 201.393C242.123 204.347 242.912 205.659 244.648 205.659C253.328 205.659 273.214 170.215 276.844 137.395C277.791 128.534 279.527 125.908 284.419 125.908C287.418 125.908 287.891 127.878 287.891 130.831C287.891 141.005 271.793 181.373 271.793 200.408C271.793 203.854 272.74 205.659 274.634 205.659C282.367 205.659 303.358 169.722 303.358 148.554C303.358 140.185 300.833 138.38 300.833 132.8C300.833 128.862 302.727 125.908 305.725 125.908C309.829 125.908 311.091 130.175 311.091 136.246C311.091 165.948 284.261 213.208 269.268 213.208C264.849 213.208 262.955 209.598 262.955 203.69C262.955 200.244 263.429 196.798 266.585 184.163C257.431 201.393 246.857 213.208 238.966 213.208C234.705 213.208 232.653 209.762 232.653 203.854Z" fill="white"/>
<path d="M200.568 190.727C200.568 199.26 201.831 204.183 205.303 204.183C210.827 204.183 216.035 195.65 220.77 183.342L222.979 184.491C216.666 202.378 208.933 213.208 200.41 213.208C192.993 213.208 190.468 205.495 190.468 194.829C190.468 166.604 208.617 125.908 227.083 125.908C232.606 125.908 235.289 129.519 235.289 135.426C235.289 150.031 220.77 162.994 203.567 168.902C201.673 176.614 200.568 184.163 200.568 190.727ZM204.356 165.456C219.823 158.728 226.451 144.451 226.451 135.426C226.451 132.308 225.504 130.667 223.61 130.667C217.455 130.667 209.091 147.569 204.356 165.456Z" fill="white"/>
<path d="M137.839 87.5097L170.192 187.773L188.342 108.022C189.131 104.576 189.605 101.622 189.605 98.6683C189.605 93.5813 187.237 89.9711 181.082 89.9711H175.401L176.19 87.5097H207.596L206.965 89.9711H205.071C197.811 89.9711 195.444 97.1914 192.919 108.022L172.875 195.978L177.61 210.582H165.616L133.735 112.617L115.27 190.07C114.481 193.516 113.692 197.126 113.692 200.08C113.692 205.331 115.743 208.285 120.794 208.285H126.475L126.318 210.582H94.4374L94.7531 208.285H96.6469C103.433 208.285 107.852 201.229 110.535 190.07L127.58 119.344C129.316 112.124 130.263 107.53 130.263 102.771C130.263 96.8632 127.896 91.2839 122.056 90.1352L118.9 89.4789L119.373 87.5097H137.839Z" fill="white"/>
<path d="M305.725 100.548C311.02 100.548 316.815 102.001 322.07 105.741C327.159 109.363 330.217 114.038 332.005 117.977C335.212 125.043 335.482 132.283 335.482 136.246C335.482 157.391 326.54 181.149 316.95 198.501C311.973 207.506 306.026 216.253 299.529 223.13C296.285 226.565 292.391 230.081 287.901 232.877C283.586 235.564 277.14 238.569 269.268 238.569C264.147 238.568 259.067 237.287 254.543 234.706C250.016 236.985 244.793 238.568 238.966 238.569C229.491 238.569 220.021 234.156 214.037 225C210.665 219.839 209.21 214.388 208.623 209.755C213.916 205.227 218.765 196.432 222.979 184.491L220.77 183.342C216.891 193.425 212.693 200.973 208.266 203.373C208.339 195.291 210.253 186.877 212.677 178.929L215.581 169.171C214.51 167.848 213.578 166.421 212.794 164.916C225.659 158.124 235.289 147.319 235.289 135.426C235.289 129.519 232.606 125.908 227.083 125.908C224.333 125.908 221.59 126.811 218.913 128.441C221.148 124.54 223.57 120.851 226.166 117.544C228.952 113.995 232.495 110.168 236.851 107.052C241.103 104.01 247.689 100.548 256.011 100.548C260.444 100.548 265.292 101.601 269.76 104.097C270.396 103.755 271.049 103.435 271.72 103.137C276.663 100.941 281.273 100.548 284.419 100.548C287.578 100.548 291.35 101.11 295.113 102.65C298.329 101.314 301.892 100.548 305.725 100.548ZM305.725 125.908C302.727 125.908 300.833 128.862 300.833 132.8C300.833 138.38 303.358 140.185 303.358 148.554C303.358 169.722 282.367 205.659 274.634 205.659C272.74 205.659 271.793 203.854 271.793 200.408C271.793 181.373 287.891 141.005 287.891 130.831C287.891 127.878 287.418 125.908 284.419 125.908C279.527 125.908 277.791 128.534 276.844 137.395C273.214 170.215 253.328 205.659 244.648 205.659C242.912 205.659 242.123 204.347 242.123 201.393C242.123 198.439 243.227 193.845 244.963 187.773L257.274 147.077C259.01 141.169 260.114 136.082 260.272 132.144C260.272 128.206 259.167 125.908 256.011 125.908C249.225 125.908 240.86 137.395 234.231 152.82L236.125 153.805C241.807 142.646 245.595 137.723 248.278 137.723C249.225 137.723 249.54 138.216 249.54 139.364C249.54 140.677 249.067 142.646 248.278 145.108L235.967 186.46C233.758 193.68 232.653 199.424 232.653 203.854C232.653 209.762 234.705 213.208 238.966 213.208C246.857 213.208 257.431 201.393 266.585 184.163C263.429 196.798 262.955 200.244 262.955 203.69C262.955 209.598 264.849 213.208 269.268 213.208C284.261 213.208 311.091 165.948 311.091 136.246C311.091 130.175 309.829 125.908 305.725 125.908ZM223.61 130.667C225.504 130.667 226.451 132.308 226.451 135.426C226.451 142.955 221.838 154.136 211.33 161.543C209.832 157.29 209.424 152.625 210.275 148.036C214.57 137.961 219.567 130.667 223.61 130.667Z" fill="black"/>
<path d="M235.289 135.426C235.289 129.519 232.606 125.908 227.083 125.908C208.617 125.908 190.468 166.604 190.468 194.829C190.468 205.495 192.993 213.208 200.41 213.208C208.933 213.208 216.666 202.378 222.979 184.491L220.77 183.342C216.035 195.65 210.827 204.183 205.303 204.183C201.831 204.183 200.568 199.26 200.568 190.727C200.568 184.163 201.673 176.614 203.567 168.902C220.635 163.04 235.062 150.233 235.287 135.768L235.289 135.426ZM247.099 180.713C247.695 184.806 247.334 189.099 245.877 193.228C244.751 196.417 243.525 199.593 242.185 202.695C242.143 202.303 242.123 201.869 242.123 201.393C242.123 198.439 243.227 193.845 244.963 187.773L247.099 180.713ZM170.192 187.773L167.325 178.888C169.459 164.652 174.17 150.176 180.206 138.094C180.928 136.649 181.688 135.201 182.484 133.76L170.192 187.773ZM223.61 130.667C225.504 130.667 226.451 132.308 226.451 135.426L226.446 135.853C226.242 144.896 219.581 158.833 204.356 165.456C209.091 147.569 217.455 130.667 223.61 130.667ZM259.637 137.466C259.3 145.633 256.962 152.93 253.594 159.238L257.274 147.077C258.307 143.559 259.117 140.332 259.637 137.466ZM256.011 125.908C249.225 125.908 240.86 137.395 234.231 152.82L236.125 153.805C241.807 142.646 245.595 137.723 248.278 137.723C249.225 137.723 249.54 138.216 249.54 139.364C249.54 140.677 249.067 142.646 248.278 145.108L235.967 186.46C233.758 193.68 232.653 199.424 232.653 203.854C232.653 208.832 234.11 212.061 237.117 212.955C235.427 215.932 233.595 218.757 231.6 221.36C225.744 229.003 215.412 238.569 200.41 238.569C194.288 238.569 187.903 236.903 182.171 232.918C176.593 229.041 173.032 223.945 170.814 219.303C169.446 216.439 168.464 213.488 167.761 210.582H177.61L172.875 195.978L189.583 122.66C191.781 119.706 194.168 116.901 196.75 114.343C203.35 107.808 213.68 100.548 227.082 100.548C235.189 100.548 244.701 103.418 251.727 111.888C255.723 116.705 257.81 122.022 258.826 126.92C258.163 126.258 257.243 125.908 256.011 125.908Z" fill="black"/>
<path d="M137.839 62.1493C145.47 62.1493 152.479 65.841 157.014 71.8362C161.548 65.8415 168.557 62.1493 176.19 62.1493H207.596L207.951 62.1517C215.397 62.2641 222.394 65.9088 226.938 72.0591C231.555 78.307 233.116 86.4312 231.164 94.044L230.532 96.5056C228.581 104.114 223.425 110.135 216.817 113.171C216.759 113.418 216.699 113.673 216.637 113.937L211.979 134.377C199.846 147.806 190.468 174.54 190.468 194.829C190.468 205.495 192.993 213.208 200.41 213.208C200.903 213.208 201.393 213.171 201.88 213.099C201.461 217.468 199.953 221.711 197.421 225.376C192.839 232.01 185.465 235.943 177.61 235.943H165.615C157.714 235.943 150.478 231.986 145.966 225.609C141.511 231.898 134.343 235.943 126.318 235.943H94.4373C87.3666 235.943 80.6438 232.752 76.0111 227.198C71.3785 221.645 69.2917 214.273 70.2917 206.996L70.6074 204.699L70.6943 204.115C72.1914 194.759 78.5167 187.29 86.7741 184.317C86.8064 184.188 86.8399 184.055 86.8726 183.92L103.918 113.194C104.201 112.014 104.444 110.976 104.651 110.061C102.144 108.185 99.9757 105.811 98.2894 103.04C94.7226 97.18 93.6196 90.0564 95.2373 83.3281L95.7109 81.359L95.8431 80.8321C98.7304 69.8236 108.356 62.1493 119.374 62.1493H137.839ZM119.373 87.5097L118.9 89.4789L122.056 90.1352C127.896 91.2839 130.263 96.8632 130.263 102.771C130.263 107.53 129.316 112.124 127.58 119.344L110.535 190.07C107.852 201.229 103.433 208.285 96.6469 208.285H94.7531L94.4374 210.582H126.318L126.475 208.285H120.794C115.743 208.285 113.692 205.331 113.692 200.08C113.692 197.126 114.481 193.516 115.27 190.07L133.735 112.617L165.616 210.582H177.61L172.875 195.978L192.919 108.022C195.444 97.1914 197.811 89.9711 205.071 89.9711H206.965L207.596 87.5097H176.19L175.401 89.9711H181.082C187.237 89.9711 189.605 93.5813 189.605 98.6683C189.605 101.622 189.131 104.576 188.342 108.022L170.192 187.773L137.839 87.5097H119.373ZM201.133 181.972C201.639 177.777 202.471 173.367 203.567 168.902C203.765 168.834 203.962 168.764 204.159 168.694L201.133 181.972ZM204.958 165.187C204.759 165.278 204.558 165.368 204.356 165.456C205.058 162.803 205.841 160.172 206.683 157.615L204.958 165.187Z" fill="black"/>
<path d="M368.194 282.497C364.091 282.497 361.092 288.732 361.092 294.312C361.092 310.229 365.985 319.747 365.985 334.515C365.985 353.222 353.675 364.873 340.733 364.873C336.472 364.873 333.158 363.068 333.158 358.638C333.158 355.52 335.21 353.222 338.366 353.222C343.574 353.222 342.785 359.294 348.151 359.294C353.517 359.294 357.147 351.91 357.147 343.705C357.147 326.146 352.57 317.613 352.57 304.322C352.57 287.091 364.249 277.574 374.507 277.574C378.611 277.574 381.609 279.543 381.609 283.809C381.609 286.435 380.031 288.896 376.875 288.896C372.298 288.896 373.403 282.497 368.194 282.497Z" fill="white"/>
<path d="M310.692 277.574C320.003 277.574 321.108 329.264 318.583 356.176C328.841 336.156 337.206 313.347 337.206 299.399C337.206 291.194 334.838 289.881 334.838 283.973C334.838 280.035 336.732 277.574 340.047 277.574C343.834 277.574 345.255 281.184 345.255 286.763C345.255 314.496 305.799 405.897 278.338 405.897C273.761 405.897 271.394 403.764 271.394 400.154C271.394 396.872 273.603 394.247 276.444 394.247C280.074 394.247 280.074 397.857 284.651 397.857C290.806 397.857 300.433 386.862 309.587 372.094C311.481 345.018 310.849 289.225 305.168 289.225C302.8 289.225 299.328 293.327 293.647 304.814L291.911 303.501C297.908 289.553 304.852 277.574 310.692 277.574Z" fill="white"/>
<path d="M231.916 358.309C231.916 339.11 256.063 277.574 278.158 277.574C280.525 277.574 283.839 278.722 287.154 280.363L292.993 273.799L295.676 274.128L270.109 352.894C276.737 346.494 283.997 338.454 290.31 329.428L292.204 331.069C279.263 349.94 266.952 364.873 261.744 364.873C259.693 364.873 259.219 363.232 259.219 360.935C259.219 358.145 260.324 354.043 261.744 349.448L274.686 308.588C256.22 347.971 243.595 364.873 236.019 364.873C233.336 364.873 231.916 362.412 231.916 358.309ZM243.121 350.597C243.121 351.91 243.595 352.402 244.226 352.402C247.225 352.402 259.535 335.664 280.841 289.389L281.314 288.076C278.473 285.45 275.948 283.481 272.634 283.481C259.061 283.481 243.121 339.438 243.121 350.597Z" fill="white"/>
<path d="M250.464 255.257C252.515 251.482 254.094 248.036 254.094 245.083C254.094 242.785 253.147 241.636 249.832 241.636H247.149L247.781 239.175H272.401L271.77 241.636H270.981C263.879 241.636 260.88 245.247 255.04 255.585L193.49 363.889H191.28L193.49 303.009L157.033 363.889H154.823L159.558 256.569C160.031 245.739 158.926 241.636 151.824 241.636H149.93L150.562 239.175H182.284L181.653 241.636H179.917C173.288 241.636 171.552 244.262 170.921 256.405L167.133 339.931L193.647 294.968L195.068 256.569C195.541 245.411 194.752 241.636 187.966 241.636H186.072L186.545 239.175H216.374L215.585 241.636H213.691C207.378 241.636 206.589 246.395 206.273 256.405L205.484 279.707L221.424 253.287C223.318 250.005 224.581 247.216 224.581 244.59C224.581 242.621 223.318 241.636 220.319 241.636H219.057L219.688 239.175H241.468L240.994 241.636H240.205C235.47 241.636 231.841 244.098 225.843 253.944L205.168 287.912L203.275 339.602L250.464 255.257Z" fill="white"/>
<path d="M310.488 348.149C310.393 354.996 310.185 361.558 309.881 367.258C309.178 364.608 308.807 361.863 308.77 359.096L308.767 358.638L308.769 358.289C308.804 354.942 309.353 351.492 310.488 348.149ZM330.545 328.92C327.305 337.877 323.13 347.301 318.583 356.176C319.163 349.99 319.551 342.494 319.692 334.618C322.994 331.851 326.711 329.979 330.545 328.92ZM381.609 283.809C381.609 279.543 378.611 277.574 374.507 277.574C364.249 277.574 352.57 287.091 352.57 304.322C352.57 317.613 357.147 326.146 357.147 343.705C357.147 351.91 353.517 359.294 348.151 359.294C342.785 359.294 343.574 353.222 338.366 353.222C335.21 353.222 333.158 355.52 333.158 358.638C333.158 362.93 336.268 364.758 340.337 364.868L340.733 364.873C353.675 364.873 365.985 353.222 365.985 334.515C365.985 319.977 361.244 310.528 361.096 295.053L361.092 294.312C361.092 288.732 364.091 282.497 368.194 282.497C373.321 282.497 372.331 288.698 376.664 288.892L376.875 288.896C380.031 288.896 381.609 286.435 381.609 283.809ZM406 283.809C406 290.172 404.104 297.674 398.831 303.979C395.757 307.655 391.994 310.358 387.889 312.067C389.019 317.851 390.376 325.47 390.376 334.516L390.372 335.239C390.038 365.841 368.57 390.234 340.733 390.234C335.857 390.234 328.266 389.293 321.225 384.094C317.479 381.327 314.576 377.862 312.518 373.994C330.367 344.853 345.255 303.798 345.255 286.763C345.255 281.184 343.834 277.574 340.047 277.574C336.732 277.574 334.838 280.035 334.838 283.973C334.838 289.881 337.206 291.194 337.206 299.399C337.206 306.874 334.803 316.893 330.994 327.665C330.974 327.562 330.955 327.458 330.935 327.354C329.902 321.947 328.179 313.931 328.179 304.321C328.179 273.975 349.938 252.213 374.507 252.213C379.875 252.213 387.644 253.446 394.613 259.107C402.479 265.496 406 274.822 406 283.809Z" fill="black"/>
<path d="M345.255 286.763C345.255 281.184 343.834 277.574 340.047 277.574C336.732 277.574 334.838 280.035 334.838 283.973C334.838 289.881 337.206 291.194 337.206 299.399C337.206 313.347 328.841 336.156 318.583 356.176C321.108 329.264 320.003 277.574 310.692 277.574C304.852 277.574 297.908 289.553 291.911 303.501L293.647 304.814C299.328 293.327 302.8 289.225 305.168 289.225C310.849 289.225 311.481 345.018 309.587 372.094C300.433 386.862 290.806 397.857 284.651 397.857L284.44 397.854C280.073 397.745 280.017 394.247 276.444 394.247C273.603 394.247 271.394 396.872 271.394 400.154C271.394 403.651 273.615 405.763 277.915 405.891L278.338 405.897C305.584 405.897 344.639 315.918 345.248 287.425L345.255 286.763ZM271.767 317.804C271.475 317.359 271.197 316.906 270.934 316.445C272.156 313.932 273.408 311.314 274.686 308.588L271.767 317.804ZM361.092 294.312C361.092 288.732 364.091 282.497 368.194 282.497C368.679 282.497 369.109 282.552 369.495 282.653C369.615 284.218 369.645 285.612 369.645 286.763L369.643 287.3C369.553 296.393 367.203 307.246 364.104 317.74C362.725 310.569 361.092 303.508 361.092 294.312ZM274.037 283.604C276.692 284.071 278.888 285.833 281.314 288.076L280.841 289.389C276.678 298.43 272.858 306.343 269.384 313.225C266.882 306.952 266.826 299.705 269.644 293.15C270.984 290.033 272.453 286.799 274.037 283.604ZM368.975 278.467C360.466 281.203 352.57 290.155 352.57 304.322C352.57 316.225 356.24 324.312 357.007 338.483C354.367 345.341 351.389 352.365 348.163 359.293C348.159 359.293 348.155 359.294 348.151 359.294C342.785 359.294 343.574 353.222 338.366 353.222C335.21 353.222 333.158 355.52 333.158 358.638C333.158 363.068 336.472 364.873 340.733 364.873C342.44 364.873 344.135 364.67 345.792 364.276C345.1 365.699 344.398 367.117 343.687 368.524C336.562 382.625 328.036 396.808 318.751 407.864C314.111 413.388 308.701 418.833 302.568 423.058C296.553 427.201 288.248 431.258 278.338 431.258C272.846 431.258 264.827 430.033 257.757 424.052C250.033 417.519 247.095 408.446 247.005 400.53L247.003 400.154L247.005 399.819C247.166 385.613 257.557 368.886 276.444 368.886L276.902 368.89C278.41 368.914 279.946 369.057 281.495 369.339C282.772 367.723 284.164 365.825 285.638 363.663C285.97 356.578 286.156 348.173 286.155 339.658C288.139 336.922 290.164 334.045 292.204 331.069L290.31 329.428C288.957 331.362 287.561 333.251 286.136 335.088C286.12 333.017 286.091 330.953 286.051 328.913C283.764 328.134 281.577 326.999 279.572 325.526L279.301 325.323L279.106 325.176L295.676 274.128L292.993 273.799L287.154 280.363C283.839 278.722 280.525 277.574 278.158 277.574C277.834 277.574 277.51 277.587 277.185 277.613C278.537 275.196 279.954 272.862 281.432 270.685C283.685 267.365 286.728 263.43 290.63 260.088C294.282 256.961 301.194 252.213 310.692 252.213C316.55 252.213 321.272 254.028 324.957 256.428C329.713 253.518 335.005 252.213 340.047 252.213C344.849 252.213 350.203 253.406 355.233 256.621C360.207 259.801 363.487 264.077 365.546 268.053C367.389 271.611 368.412 275.222 368.975 278.467Z" fill="black"/>
<path d="M280.094 252.275C284.739 249.266 290.283 247.933 295.843 248.613L298.526 248.941L298.868 248.985C306.033 249.969 312.418 254.208 316.288 260.569C320.22 267.03 321.138 274.992 318.786 282.237L316.769 288.451C315.342 281.794 313.352 277.574 310.692 277.574C304.852 277.574 297.908 289.553 291.911 303.501L293.647 304.814C299.328 293.327 302.8 289.225 305.168 289.225C307.418 289.225 308.875 297.979 309.698 310.235L308.927 312.61C309.264 312.939 309.59 313.275 309.905 313.62C310.481 324.044 310.648 336.464 310.489 348.072C304.26 357.042 297.893 365.531 292.092 372.142C289 375.664 285.519 379.29 281.887 382.238C280.069 383.713 277.696 385.445 274.885 386.899C272.316 388.229 267.668 390.234 261.744 390.234C258.248 390.234 253.805 389.55 249.287 387.111C245.574 388.9 241.117 390.234 236.019 390.234C226.151 390.234 217.45 385.023 212.384 376.745C208.201 369.911 207.525 362.783 207.525 358.309C207.525 349.479 209.99 339.013 212.778 329.947L250.553 263.481C257.331 257.656 266.638 252.213 278.158 252.213L278.537 252.216C279.059 252.222 279.579 252.242 280.094 252.275ZM287.154 280.363C283.839 278.722 280.525 277.574 278.158 277.574C256.063 277.574 231.916 339.11 231.916 358.309C231.916 362.412 233.336 364.873 236.019 364.873C243.595 364.873 256.22 347.971 274.686 308.588L261.744 349.448C260.324 354.043 259.219 358.145 259.219 360.935C259.219 363.232 259.693 364.873 261.744 364.873C266.952 364.873 279.263 349.94 292.204 331.069L290.31 329.428C283.997 338.454 276.737 346.494 270.109 352.894L295.676 274.128L292.993 273.799L287.154 280.363ZM272.634 283.481C275.948 283.481 278.473 285.45 281.314 288.076L280.841 289.389C259.535 335.663 247.225 352.402 244.226 352.402C243.595 352.402 243.121 351.91 243.121 350.597C243.121 339.438 259.061 283.481 272.634 283.481ZM220.911 308.079C222.22 305.074 223.607 302.082 225.062 299.141C228.769 291.648 233.216 283.882 238.334 276.935L220.911 308.079Z" fill="black"/>
<path d="M182.284 213.815C182.997 213.815 183.707 213.847 184.411 213.911C185.115 213.847 185.827 213.815 186.545 213.815H216.374C216.928 213.815 217.48 213.835 218.029 213.873C218.578 213.835 219.131 213.815 219.688 213.815H241.468C242.529 213.815 243.582 213.887 244.621 214.028C245.658 213.887 246.713 213.815 247.781 213.815H272.401L272.756 213.817C280.201 213.929 287.198 217.574 291.742 223.724C296.359 229.972 297.921 238.096 295.968 245.709L295.337 248.171C292.974 257.382 285.915 264.268 277.268 266.346C276.917 266.945 276.521 267.633 276.072 268.428C276.061 268.447 276.05 268.467 276.039 268.486L269.073 280.744C254.873 290.256 241.297 319.204 235.231 340.291L214.488 376.79C210.1 384.512 202.115 389.249 193.489 389.249H191.28C184.863 389.249 178.714 386.62 174.156 381.948C169.646 386.571 163.516 389.249 157.033 389.249H154.823C148.16 389.249 141.787 386.415 137.185 381.405C132.583 376.396 130.153 369.647 130.458 362.727L134.918 261.623C133.313 260.321 131.855 258.802 130.589 257.087C125.972 250.839 124.411 242.715 126.363 235.102L126.995 232.641L127.133 232.123C130.144 221.299 139.684 213.815 150.562 213.815H182.284ZM150.562 239.175L149.93 241.636H151.824C158.926 241.636 160.031 245.739 159.558 256.569L154.823 363.889H157.033L193.49 303.009L191.28 363.889H193.49L255.04 255.585C260.88 245.247 263.879 241.636 270.981 241.636H271.77L272.401 239.175H247.781L247.149 241.636H249.832C253.147 241.636 254.094 242.785 254.094 245.083C254.094 248.036 252.515 251.482 250.464 255.257L203.275 339.602L205.168 287.912L225.843 253.944C231.841 244.098 235.47 241.636 240.205 241.636H240.994L241.468 239.175H219.688L219.057 241.636H220.319C223.318 241.636 224.581 242.621 224.581 244.59C224.581 247.216 223.318 250.005 221.424 253.287L205.484 279.707L206.273 256.405C206.589 246.395 207.378 241.636 213.691 241.636H215.585L216.374 239.175H186.545L186.072 241.636H187.966C194.752 241.636 195.541 245.411 195.068 256.569L193.647 294.968L167.133 339.931L170.921 256.405C171.552 244.262 173.288 241.636 179.917 241.636H181.653L182.284 239.175H150.562ZM258.373 299.571C260.005 296.214 261.7 293.186 263.422 290.686L258.373 299.571ZM135.236 251.721C135.236 251.716 135.236 251.711 135.236 251.706C135.228 251.609 135.225 251.619 135.236 251.721Z" fill="black"/>
<path d="M45.8598 457.623C38.7578 457.623 34.9701 454.341 34.9701 450.238C34.9701 447.777 36.7061 445.316 39.7047 445.316C44.9129 445.316 43.6503 453.356 50.121 453.356C57.0653 453.356 62.589 445.48 69.0598 420.373L90.3659 337.996H79.0026L79.6339 336.355L91.6284 333.401C99.9931 301.403 112.777 290.244 124.613 290.244C130.926 290.244 135.03 293.362 135.03 297.3C135.03 300.09 133.294 302.059 130.295 302.059C125.56 302.059 126.665 295.167 120.352 295.167C114.039 295.167 109.778 300.746 103.15 326.017L101.413 332.909H117.354L115.618 337.996H99.993L81.6856 407.737C71.7428 445.644 59.2748 457.623 45.8598 457.623Z" fill="white"/>
<path d="M58.7964 330.284C67.6344 330.284 71.58 338.324 71.58 352.601C71.58 378.036 55.1664 417.583 37.1746 417.583C28.3366 417.583 24.391 409.542 24.391 395.266C24.391 369.831 40.6467 330.284 58.7964 330.284ZM58.4807 334.55C48.0644 334.55 32.44 380.169 32.44 403.635C32.44 410.035 33.8604 413.317 37.4903 413.317C47.9066 413.317 63.5311 367.698 63.5311 344.232C63.5311 337.832 62.1107 334.55 58.4807 334.55Z" fill="white"/>
<path d="M135.03 297.3C135.03 293.362 130.926 290.244 124.613 290.244C112.777 290.244 99.9931 301.403 91.6284 333.401L79.6339 336.355L79.0026 337.996H90.3659L69.0598 420.373C62.589 445.48 57.0653 453.356 50.121 453.356L49.8236 453.35C43.6882 453.107 44.8316 445.316 39.7047 445.316C36.7061 445.316 34.9701 447.777 34.9701 450.238C34.9701 454.341 38.7578 457.623 45.8598 457.623C59.2748 457.623 71.7428 445.644 81.6856 407.737L99.993 337.996H115.618L117.354 332.909H101.413L103.15 326.017C109.778 300.746 114.039 295.167 120.352 295.167C126.665 295.167 125.56 302.059 130.295 302.059C133.2 302.059 134.92 300.211 135.025 297.559L135.03 297.3ZM58.4807 334.55C62.1107 334.55 63.5311 337.832 63.5311 344.232C63.5311 359.82 56.6358 385.184 48.953 400.457L60.7556 354.824C60.0567 354.005 59.4043 353.134 58.8052 352.214C55.7186 347.474 54.3076 341.86 54.6668 336.296C55.9867 335.168 57.269 334.55 58.4807 334.55ZM159.421 297.3C159.421 304.224 157.171 312.277 151.034 318.658C147.888 321.929 144.32 324.139 140.686 325.521C142.187 330.648 142.108 336.209 140.34 341.39L138.604 346.477C135.495 355.586 127.724 361.972 118.671 363.156L105.217 414.41C99.8787 434.76 93.1621 451.157 84.0124 462.878C74.0505 475.639 60.9679 482.983 45.8598 482.983C39.0234 482.983 30.9202 481.445 23.779 476.256C16.1732 470.728 10.7507 461.637 10.5832 450.758L10.5794 450.239L10.5813 449.905C10.745 435.794 21.2932 419.955 39.7046 419.955C41.0336 419.955 42.3835 420.049 43.7417 420.246C44.2014 418.666 44.6794 416.94 45.1751 415.055C59.7537 405.946 71.58 374.19 71.58 352.601C71.58 338.324 67.6344 330.284 58.7964 330.284C57.7401 330.284 56.6905 330.419 55.6499 330.676C55.8548 329.97 56.0903 329.27 56.3565 328.578L56.9875 326.937L57.1281 326.579C59.9548 319.543 65.6691 314.221 72.6624 312.053C82.5267 285.141 99.2011 264.884 124.613 264.884C131.362 264.884 139.043 266.516 145.82 271.265C152.861 276.199 159.42 285.175 159.421 297.3Z" fill="black"/>
<path d="M58.7964 304.923C72.0429 304.923 83.2703 311.875 89.6655 323.481C90.8265 325.587 91.7822 327.762 92.5672 329.965C92.2489 331.083 91.9352 332.228 91.6284 333.401L79.6339 336.355L79.0026 337.996H90.3659L69.0598 420.373C68.1533 423.89 67.2653 427.069 66.3895 429.935C59.9339 436.222 50.0263 442.944 37.1747 442.944C23.9282 442.944 12.7008 435.991 6.30553 424.386C1.06886 414.883 1.58948e-05 404.007 0 395.266C0 377.947 5.25691 357.813 13.0062 341.824C16.9319 333.724 22.1314 325.354 28.7945 318.643C35.2716 312.121 45.4585 304.923 58.7964 304.923ZM58.7964 330.284C40.6467 330.284 24.391 369.831 24.391 395.266C24.391 409.542 28.3366 417.583 37.1746 417.583C55.1664 417.583 71.58 378.036 71.58 352.601C71.58 338.324 67.6344 330.284 58.7964 330.284ZM58.4807 334.55C62.1107 334.55 63.5311 337.832 63.5311 344.232C63.5311 367.698 47.9066 413.317 37.4903 413.317C33.8604 413.317 32.44 410.035 32.44 403.635C32.44 380.169 48.0644 334.55 58.4807 334.55ZM95.9668 353.332C95.8204 370.527 90.5437 390.332 82.892 406.071C82.3769 407.13 81.8395 408.194 81.2807 409.258C81.4158 408.756 81.5514 408.249 81.6856 407.737L95.9668 353.332Z" fill="black"/>
<path d="M327.806 494.56C324.334 494.56 321.651 492.919 319.915 490.457C315.654 493.247 314.549 495.216 314.549 498.17C314.549 501.288 317.547 503.913 321.02 506.375L330.331 512.774C338.064 518.025 342.641 523.277 342.641 531.974C342.641 548.219 328.753 558.557 313.444 558.557C301.292 558.557 293.401 553.142 293.401 542.476C293.401 530.497 302.87 522.292 315.18 515.564C309.972 511.954 306.658 508.344 306.658 502.764C306.658 496.857 311.235 492.59 318.494 488.16C317.232 485.206 316.601 481.104 316.601 476.509C316.601 457.638 328.595 430.234 343.588 430.234C346.429 430.234 348.639 431.218 350.217 432.859H366.157L364.105 437.946H353.373C354.32 440.736 354.794 444.346 354.794 448.448C354.794 468.468 342.01 494.56 327.806 494.56ZM343.115 434.664C334.592 434.664 324.176 466.007 324.176 482.088C324.176 486.847 325.439 490.293 328.279 490.293C337.907 490.293 347.218 456.817 347.218 442.213C347.218 437.618 345.956 434.664 343.115 434.664ZM300.818 540.671C300.818 549.532 306.184 554.127 315.496 554.127C327.49 554.127 335.539 546.906 335.539 537.061C335.539 530.825 332.856 527.543 325.754 522.784L317.705 517.369C306.5 524.261 300.818 531.317 300.818 540.671Z" fill="white"/>
<path d="M267.691 449.433C268.481 446.971 268.954 445.166 268.954 443.69C268.954 442.541 268.638 441.884 267.691 441.884C264.851 441.884 261.221 446.643 255.224 458.13L253.172 457.145C259.8 441.556 267.849 430.234 274.478 430.234C277.95 430.234 279.528 432.367 279.528 436.469C279.528 439.751 278.581 443.854 276.687 449.597L265.955 482.416C282.527 444.674 295.784 430.234 304.622 430.234C308.41 430.234 310.146 433.023 310.146 437.782C310.146 441.064 309.199 445.331 307.463 450.582L288.524 505.554C294.837 499.154 301.623 490.785 307.463 482.088L309.357 483.729C297.204 502.108 285.368 517.533 280.475 517.533C278.423 517.533 277.634 515.728 277.634 513.267C277.634 510.477 278.739 506.21 280.317 501.616L297.678 451.73C298.467 449.433 299.098 446.479 299.098 445.002C299.098 443.197 298.625 442.541 297.047 442.541C290.891 442.541 275.583 460.92 255.381 514.908H246.859L267.691 449.433Z" fill="white"/>
<path d="M236.993 449.433C237.782 446.971 238.255 444.838 238.255 443.69C238.255 442.377 237.939 441.72 236.993 441.72C234.152 441.72 230.995 446.315 224.84 458.294L222.631 457.145C229.417 441.556 237.308 430.234 244.095 430.234C247.409 430.234 248.829 432.695 248.829 436.469C248.829 439.915 247.409 445.659 245.515 451.402L227.523 505.226C233.836 498.826 241.096 490.785 247.093 482.088L248.987 483.729C236.677 502.272 224.84 517.533 219.632 517.533C217.58 517.533 216.791 515.892 216.791 513.431C216.791 510.477 218.054 506.21 219.632 501.452L236.993 449.433ZM251.828 412.675C247.882 412.675 245.041 410.05 245.041 405.783C245.041 401.681 247.882 398.727 251.828 398.727C255.616 398.727 258.614 401.681 258.614 405.783C258.614 410.05 255.616 412.675 251.828 412.675Z" fill="white"/>
<path d="M187.705 495.052C187.705 503.585 188.968 508.508 192.44 508.508C197.963 508.508 203.172 499.975 207.906 487.667L210.116 488.816C203.803 506.703 196.07 517.533 187.547 517.533C180.129 517.533 177.604 509.821 177.604 499.154C177.604 470.93 195.754 430.234 214.219 430.234C219.743 430.234 222.426 433.844 222.426 439.751C222.426 454.356 207.906 467.319 190.704 473.227C188.81 480.94 187.705 488.488 187.705 495.052ZM191.493 469.781C206.959 463.053 213.588 448.777 213.588 439.751C213.588 436.633 212.641 434.992 210.747 434.992C204.592 434.992 196.227 451.894 191.493 469.781Z" fill="white"/>
<path d="M148.36 495.052C148.36 503.585 149.623 508.508 153.095 508.508C158.619 508.508 163.827 499.975 168.562 487.667L170.771 488.816C164.458 506.703 156.725 517.533 148.202 517.533C140.785 517.533 138.26 509.821 138.26 499.154C138.26 470.93 156.409 430.234 174.874 430.234C180.398 430.234 183.081 433.844 183.081 439.751C183.081 454.356 168.562 467.319 151.359 473.227C149.465 480.94 148.36 488.488 148.36 495.052ZM152.148 469.781C167.615 463.053 174.243 448.777 174.243 439.751C174.243 436.633 173.296 434.992 171.402 434.992C165.247 434.992 156.883 451.894 152.148 469.781Z" fill="white"/>
<path d="M122.779 484.55C122.779 458.951 96.8964 452.551 96.8964 425.475C96.8964 406.275 110.154 389.209 126.409 389.209C135.563 389.209 141.402 394.296 144.717 400.368L138.719 425.967H136.194C137.457 420.06 138.088 415.957 138.088 412.183C138.088 401.024 135.09 393.804 125.462 393.804C114.257 393.804 106.524 404.47 106.524 419.239C106.524 442.869 132.564 450.253 132.564 478.314C132.564 501.78 116.624 517.533 100.842 517.533C88.5318 517.533 81.4298 512.118 77.3264 506.375L84.5862 478.314H87.1114C85.691 484.878 85.0597 489.308 85.0597 493.247C85.0597 505.062 89.1631 512.938 101.473 512.938C114.573 512.938 122.779 500.303 122.779 484.55Z" fill="white"/>
<path d="M343.588 404.873C348.06 404.873 352.525 405.727 356.707 407.499H366.157L366.539 407.502C374.559 407.632 382.016 411.857 386.467 418.816C390.988 425.885 391.807 434.837 388.65 442.666L386.598 447.754C384.852 452.084 382.035 455.718 378.547 458.382C377.071 470.154 373.134 481.916 367.792 491.615C365.277 496.181 362.144 500.852 358.319 505.062C358.617 505.463 358.91 505.872 359.198 506.289C364.354 513.754 367.032 522.439 367.032 531.974C367.032 566.593 337.599 583.918 313.444 583.918C304.37 583.918 293.539 581.968 284.355 574.901C274.288 567.154 269.171 555.521 269.013 543.069L269.01 542.476L269.014 541.821C269.151 530.862 272.73 521.986 277.766 514.847C278.064 516.463 278.895 517.533 280.475 517.533C285.368 517.533 297.204 502.108 309.357 483.729L307.463 482.088C301.623 490.785 294.837 499.154 288.524 505.554L307.463 450.582C309.199 445.331 310.146 441.064 310.146 437.782C310.146 433.294 308.602 430.558 305.249 430.261C308.364 425.069 312.309 419.864 317.228 415.506C323.395 410.043 332.358 404.873 343.588 404.873ZM343.588 430.234C328.595 430.234 316.601 457.638 316.601 476.509C316.601 481.104 317.232 485.206 318.494 488.16C311.235 492.59 306.658 496.857 306.658 502.764C306.658 508.344 309.972 511.954 315.18 515.564C302.87 522.292 293.401 530.497 293.401 542.476C293.401 553.142 301.292 558.557 313.444 558.557C328.753 558.557 342.641 548.219 342.641 531.974C342.641 523.277 338.064 518.025 330.331 512.774L321.02 506.375C317.547 503.913 314.549 501.288 314.549 498.17C314.549 495.216 315.654 493.247 319.915 490.457C321.651 492.919 324.334 494.56 327.806 494.56C342.01 494.56 354.794 468.468 354.794 448.448C354.794 444.346 354.32 440.736 353.373 437.946H364.105L366.157 432.859H350.217C348.639 431.218 346.429 430.234 343.588 430.234ZM325.754 522.784C332.856 527.543 335.539 530.825 335.539 537.061C335.539 546.906 327.49 554.127 315.496 554.127C306.184 554.127 300.818 549.532 300.818 540.671C300.818 531.317 306.5 524.261 317.705 517.369L325.754 522.784ZM343.115 434.664C345.956 434.664 347.218 437.618 347.218 442.213C347.218 456.817 337.907 490.293 328.279 490.293C325.439 490.293 324.176 486.847 324.176 482.088C324.176 466.007 334.592 434.664 343.115 434.664ZM298.841 443.381C299.025 443.765 299.098 444.295 299.098 445.002C299.098 446.479 298.467 449.433 297.678 451.73L293.083 464.934C294.147 457.632 296.143 450.251 298.841 443.381Z" fill="black"/>
<path d="M304.622 404.873C312.976 404.873 322.273 408.397 328.503 417.268C332.49 422.947 333.9 429.002 334.348 433.734C323.957 441.719 316.601 461.73 316.601 476.509C316.601 481.104 317.232 485.206 318.494 488.16C311.235 492.59 306.658 496.857 306.658 502.764C306.658 508.344 309.972 511.954 315.18 515.564C303.924 521.716 295.045 529.103 293.606 539.48C290.99 540.879 286.369 542.894 280.475 542.894C274.963 542.894 269.699 541.193 265.288 538.082C262.231 539.496 258.868 540.268 255.381 540.268H246.859C239.028 540.268 231.674 536.359 227.088 529.759C224.349 525.817 222.796 521.2 222.515 516.473C228.528 512.713 238.589 499.392 248.987 483.729L247.093 482.088C241.096 490.785 233.836 498.826 227.523 505.226L245.515 451.402C247.409 445.659 248.829 439.915 248.829 436.469C248.829 432.695 247.409 430.234 244.095 430.234C241.949 430.234 239.692 431.366 237.395 433.408C239.66 429.326 242.119 425.466 244.763 422.022C247.248 418.785 250.373 415.286 254.195 412.302C255.426 411.892 256.482 411.153 257.254 410.135C261.446 407.457 267.309 404.873 274.478 404.873C278.751 404.873 284.052 405.802 289.088 408.703C293.708 406.369 298.89 404.873 304.622 404.873ZM314.206 519.653C313.013 521.193 311.838 522.667 310.686 524.059C308.107 527.177 305.216 530.42 302.188 533.214C304.135 528.231 308.152 523.869 314.206 519.653ZM304.622 430.234C295.784 430.234 282.527 444.674 265.955 482.416L276.687 449.597C278.581 443.854 279.528 439.751 279.528 436.469C279.528 432.367 277.95 430.234 274.478 430.234C267.849 430.234 259.8 441.556 253.172 457.145L255.224 458.13C261.221 446.643 264.851 441.884 267.691 441.884C268.638 441.884 268.954 442.541 268.954 443.69C268.954 445.166 268.481 446.971 267.691 449.433L246.859 514.908H255.381C275.583 460.92 290.891 442.541 297.047 442.541C298.625 442.541 299.098 443.197 299.098 445.002C299.098 446.479 298.467 449.433 297.678 451.73L280.317 501.616C278.739 506.21 277.634 510.477 277.634 513.267C277.634 515.728 278.423 517.533 280.475 517.533C285.368 517.533 297.204 502.108 309.357 483.729L307.463 482.088C301.623 490.785 294.837 499.154 288.524 505.554L307.463 450.582C309.199 445.331 310.146 441.064 310.146 437.782C310.146 433.023 308.41 430.234 304.622 430.234ZM319.915 490.457C321.651 492.919 324.334 494.56 327.806 494.56C329.118 494.56 330.417 494.336 331.696 493.917C331.087 495.357 330.342 496.757 329.456 498.097C327.31 501.342 325.126 504.569 322.945 507.698L321.02 506.375C317.547 503.913 314.549 501.288 314.549 498.17C314.549 495.216 315.654 493.247 319.915 490.457ZM334.123 443.942C333.428 449.349 331.96 454.496 330.529 458.826C330.495 458.929 330.46 459.032 330.425 459.134L327.707 467.021C332.439 472.63 334.468 480.037 333.521 487.2C331.822 489.152 330.056 490.293 328.279 490.293C325.439 490.293 324.176 486.847 324.176 482.088C324.176 471.555 328.645 454.474 334.123 443.942ZM236.993 441.72C237.939 441.72 238.255 442.377 238.255 443.69C238.255 444.838 237.782 446.971 236.993 449.433L230.939 467.571C228.382 461.673 227.996 454.789 230.297 448.342C233.157 443.671 235.142 441.72 236.993 441.72Z" fill="black"/>
<path d="M244.095 430.234C237.308 430.234 229.417 441.556 222.631 457.145L224.84 458.294C230.995 446.315 234.152 441.72 236.993 441.72C237.939 441.72 238.255 442.377 238.255 443.69C238.255 444.838 237.782 446.971 236.993 449.433L219.632 501.452C218.054 506.21 216.791 510.477 216.791 513.431C216.791 515.892 217.58 517.533 219.632 517.533C224.84 517.533 236.677 502.272 248.987 483.729L247.093 482.088C241.096 490.785 233.836 498.826 227.523 505.226L245.515 451.402C247.409 445.659 248.829 439.915 248.829 436.469C248.829 432.695 247.409 430.234 244.095 430.234ZM269.834 470.555C270.132 471.064 270.41 471.583 270.671 472.109C269.131 475.332 267.559 478.765 265.955 482.416L269.834 470.555ZM210.747 434.992C212.641 434.992 213.588 436.633 213.588 439.751C213.588 447.033 209.272 457.732 199.481 465.128C197.615 459.281 197.783 452.722 200.41 446.688C200.901 445.561 201.405 444.432 201.923 443.307C204.962 438.203 208.064 434.992 210.747 434.992ZM234.24 406.528C237.166 405.529 240.465 404.873 244.094 404.873C244.424 404.873 244.755 404.879 245.088 404.89C245.057 405.181 245.041 405.479 245.041 405.783L245.043 405.982C245.129 410.065 247.855 412.594 251.644 412.673L251.828 412.675C254.718 412.675 257.148 411.147 258.138 408.527C261.191 410.25 264.048 412.625 266.488 415.746C268.452 412.671 269.357 409.271 269.428 406.179L269.432 405.783L269.428 405.407C269.337 401.481 267.824 396.466 263.762 392.45C259.724 388.459 255.062 387.315 251.828 387.315C248.322 387.315 243.819 388.574 239.979 392.309C235.933 396.244 234.223 401.394 234.223 405.783C234.223 406.031 234.229 406.28 234.24 406.528ZM283.005 405.783C283.005 414.439 279.796 423.035 273.304 429.349C273.095 429.553 272.883 429.752 272.67 429.948C272.701 430.126 272.73 430.302 272.758 430.476C266.491 432.192 259.237 442.882 253.172 457.145L255.224 458.13C261.221 446.643 264.851 441.884 267.691 441.884C268.638 441.884 268.954 442.541 268.954 443.69C268.954 445.166 268.481 446.971 267.691 449.433L246.859 514.908H255.381C261.423 498.762 267.027 485.801 272.079 475.564C274.483 482.929 273.59 491.311 269.06 498.136C262.716 507.692 256.07 517.057 250.021 524.262C247.051 527.799 243.658 531.504 240.075 534.533C238.281 536.051 235.906 537.857 233.06 539.383C230.445 540.784 225.706 542.894 219.632 542.894C211.259 542.894 202.478 538.907 197.059 530.332C193.793 525.165 192.798 519.926 192.511 516.287C199.075 512.966 205.053 503.161 210.116 488.816L207.906 487.667C203.255 499.759 198.146 508.206 192.73 508.499C193.534 502.12 195.601 496.116 196.574 493.184L196.589 493.138L203.395 472.744C202.446 471.477 201.619 470.124 200.921 468.706C213.287 461.889 222.426 451.337 222.426 439.751C222.426 433.844 219.743 430.234 214.219 430.234C212.08 430.234 209.945 430.78 207.842 431.79C209.852 428.312 212.006 425.011 214.301 422.022C216.308 419.407 218.744 416.608 221.641 414.047C221.002 411.438 220.682 408.785 220.653 406.17L220.651 405.783L220.653 405.36C220.866 387.452 234.548 373.367 251.828 373.367C268.711 373.367 283.005 387.287 283.005 405.783Z" fill="black"/>
<path d="M222.426 439.751C222.426 433.844 219.743 430.234 214.219 430.234C195.754 430.234 177.604 470.93 177.604 499.154C177.604 509.821 180.129 517.533 187.547 517.533C196.07 517.533 203.803 506.703 210.116 488.816L207.906 487.667C203.172 499.975 197.963 508.508 192.44 508.508C188.968 508.508 187.705 503.585 187.705 495.052C187.705 488.488 188.81 480.94 190.704 473.227C207.772 467.366 222.199 454.558 222.423 440.093L222.426 439.751ZM234.246 485.113C234.826 489.184 234.462 493.449 233.013 497.553C232.641 498.608 232.257 499.661 231.862 500.711C230.385 502.29 228.931 503.799 227.523 505.226L234.246 485.113ZM210.747 434.992C212.641 434.992 213.588 436.633 213.588 439.751L213.583 440.178C213.378 449.221 206.718 463.158 191.493 469.781C196.227 451.894 204.592 434.992 210.747 434.992ZM171.402 434.992C173.296 434.992 174.243 436.633 174.243 439.751C174.243 447.528 169.321 459.202 158.065 466.588C160.476 458.04 163.663 449.785 167.343 442.419C168.583 439.937 169.934 437.445 171.396 434.992C171.398 434.992 171.4 434.992 171.402 434.992ZM244.095 430.234C237.308 430.234 229.417 441.556 222.631 457.145L224.84 458.294C230.995 446.315 234.152 441.72 236.993 441.72C237.939 441.72 238.255 442.377 238.255 443.69C238.255 444.838 237.782 446.971 236.993 449.433L219.632 501.452C218.054 506.21 216.791 510.477 216.791 513.431C216.791 515.892 217.58 517.533 219.632 517.533C221.281 517.533 223.594 516.003 226.376 513.324C224.126 517.766 221.596 521.953 218.737 525.685C212.88 533.328 202.548 542.894 187.547 542.894C181.425 542.894 175.04 541.229 169.308 537.244C163.73 533.366 160.169 528.27 157.951 523.628C156.629 520.861 155.668 518.012 154.971 515.202C160.827 511.115 166.176 501.836 170.771 488.816L168.562 487.667C164.012 499.493 159.026 507.832 153.742 508.467C153.325 505.06 153.214 501.874 153.214 499.154C153.214 490.074 154.56 480.447 156.885 471.045C171.56 464.468 183.081 452.76 183.081 439.751C183.081 433.844 180.398 430.234 174.874 430.234C174.72 430.234 174.565 430.237 174.411 430.243C177.218 426.091 180.372 422.15 183.887 418.669C190.486 412.134 200.817 404.873 214.219 404.873C222.325 404.873 231.837 407.743 238.864 416.213C242.658 420.787 244.73 425.811 245.8 430.499C245.299 430.325 244.732 430.234 244.095 430.234Z" fill="black"/>
<path d="M183.081 439.751C183.081 433.844 180.398 430.234 174.874 430.234C156.409 430.234 138.26 470.93 138.26 499.154C138.26 509.821 140.785 517.533 148.202 517.533C156.725 517.533 164.458 506.703 170.771 488.816L168.562 487.667C163.827 499.975 158.619 508.508 153.095 508.508C149.623 508.508 148.36 503.585 148.36 495.052C148.36 488.488 149.465 480.94 151.359 473.227C168.427 467.366 182.854 454.558 183.079 440.093L183.081 439.751ZM113.869 499.154C113.869 488.999 115.553 478.159 118.407 467.715C121.014 472.491 122.779 477.866 122.779 484.55C122.779 494.19 119.705 502.662 114.318 507.786C113.966 504.636 113.869 501.692 113.869 499.154ZM196.823 470.775C195.313 472.822 193.714 474.723 192.078 476.474C195.426 482.73 196.198 490.387 193.669 497.553C192.519 500.811 191.264 504.054 189.89 507.219C188.325 505.236 187.705 501.03 187.705 495.052C187.705 488.488 188.81 480.94 190.704 473.227C192.79 472.511 194.836 471.689 196.823 470.775ZM171.402 434.992C173.296 434.992 174.243 436.633 174.243 439.751L174.238 440.178C174.034 449.221 167.373 463.158 152.148 469.781C156.883 451.894 165.247 434.992 171.402 434.992ZM191.493 469.781C195.4 455.022 201.778 440.933 207.347 436.457C207.418 437.384 207.456 438.278 207.467 439.132L207.472 439.751L207.466 440.518C207.332 449.222 204.916 456.967 201.36 463.613C198.587 466 195.309 468.121 191.493 469.781ZM206.824 432.316C191.197 440.963 177.604 474.728 177.604 499.154C177.604 508.475 179.533 515.54 184.97 517.174C183.263 520.19 181.41 523.051 179.392 525.685C173.536 533.328 163.204 542.894 148.202 542.894C142.08 542.894 135.695 541.229 129.963 537.244C124.385 533.366 120.824 528.27 118.606 523.628C116.965 520.194 115.879 516.635 115.166 513.179C125.016 506.956 132.564 494.461 132.564 478.314C132.564 467.193 128.473 459.321 123.535 452.397C124.916 448.937 126.411 445.596 127.998 442.419C130.807 436.797 134.179 431.131 138.146 425.967L138.719 425.967L138.965 424.918C140.712 422.72 142.57 420.622 144.542 418.669C151.141 412.134 161.472 404.873 174.875 404.873C182.981 404.873 192.493 407.743 199.519 416.213C203.808 421.384 205.898 427.13 206.824 432.316Z" fill="black"/>
<path d="M126.409 363.849C146.039 363.849 159.19 375.505 165.929 387.85C168.996 393.469 169.885 400.093 168.414 406.37L162.417 431.969C161.863 434.335 160.998 436.554 159.877 438.586C158.198 440.432 156.57 442.534 155.013 444.838C153.481 446.268 151.778 447.493 149.945 448.482C150.373 449.342 150.791 450.226 151.197 451.133C143.492 465.249 138.26 483.999 138.26 499.154C138.26 508.478 140.189 515.544 145.629 517.175C135.483 532.678 119.374 542.894 100.842 542.894C80.6312 542.894 66.5863 533.548 58.1444 522.047L57.7469 521.498C53.2997 515.273 51.8356 507.275 53.7729 499.787L61.0326 471.726L61.1722 471.21C63.6672 462.313 70.5743 455.684 79.0025 453.625C75.3453 446.136 72.5055 436.838 72.5055 425.475L72.5092 424.801C72.8222 396.267 92.9836 363.849 126.409 363.849ZM126.409 389.209C110.154 389.209 96.8964 406.275 96.8964 425.475C96.8964 452.551 122.779 458.951 122.779 484.55C122.779 500.303 114.573 512.938 101.473 512.938C89.1631 512.938 85.0597 505.062 85.0597 493.247C85.0597 489.308 85.691 484.878 87.1114 478.314H84.5862L77.3264 506.375C81.4298 512.118 88.5318 517.533 100.842 517.533C116.624 517.533 132.564 501.78 132.564 478.314C132.564 450.253 106.524 442.869 106.524 419.239C106.524 404.47 114.257 393.804 125.462 393.804C135.09 393.804 138.088 401.024 138.088 412.183C138.088 415.957 137.457 420.06 136.194 425.967H138.719L144.717 400.368C141.402 394.296 135.563 389.209 126.409 389.209ZM148.36 495.052C148.36 488.488 149.465 480.94 151.359 473.227C153.135 472.617 154.882 471.93 156.588 471.176C156.826 473.462 156.955 475.841 156.955 478.314L156.951 479.132C156.84 489.273 154.661 498.949 150.848 507.562C149.06 505.751 148.36 501.401 148.36 495.052ZM154.745 461.131C155.307 463.245 155.781 465.456 156.144 467.769C154.884 468.495 153.553 469.17 152.148 469.781C152.924 466.848 153.799 463.941 154.745 461.131Z" fill="black"/>
<path d="M58.7964 330.284C67.6344 330.284 71.58 338.324 71.58 352.601C71.58 378.036 55.1664 417.583 37.1746 417.583C28.3366 417.583 24.391 409.542 24.391 395.266C24.391 369.831 40.6467 330.284 58.7964 330.284ZM58.4807 334.55C48.0644 334.55 32.44 380.169 32.44 403.635C32.44 410.035 33.8604 413.317 37.4903 413.317C47.9066 413.317 63.5311 367.698 63.5311 344.232C63.5311 337.832 62.1107 334.55 58.4807 334.55Z" fill="white"/>
<path d="M45.8598 457.623C38.7578 457.623 34.9701 454.341 34.9701 450.238C34.9701 447.777 36.7061 445.316 39.7047 445.316C44.9129 445.316 43.6503 453.356 50.121 453.356C57.0653 453.356 62.589 445.48 69.0598 420.373L90.3659 337.996H79.0026L79.6339 336.355L91.6284 333.401C99.9931 301.403 112.777 290.244 124.613 290.244C130.926 290.244 135.03 293.362 135.03 297.3C135.03 300.09 133.294 302.059 130.295 302.059C125.56 302.059 126.665 295.167 120.352 295.167C114.039 295.167 109.778 300.746 103.15 326.017L101.413 332.909H117.354L115.618 337.996H99.993L81.6856 407.737C71.7428 445.644 59.2748 457.623 45.8598 457.623Z" fill="white"/>
<path d="M368.194 282.497C364.091 282.497 361.092 288.732 361.092 294.312C361.092 310.229 365.985 319.747 365.985 334.515C365.985 353.222 353.675 364.873 340.733 364.873C336.472 364.873 333.158 363.068 333.158 358.638C333.158 355.52 335.21 353.222 338.366 353.222C343.574 353.222 342.785 359.294 348.151 359.294C353.517 359.294 357.147 351.91 357.147 343.705C357.147 326.146 352.57 317.613 352.57 304.322C352.57 287.091 364.249 277.574 374.507 277.574C378.611 277.574 381.609 279.543 381.609 283.809C381.609 286.435 380.031 288.896 376.875 288.896C372.298 288.896 373.403 282.497 368.194 282.497Z" fill="white"/>
<path d="M310.692 277.574C320.003 277.574 321.108 329.264 318.583 356.176C328.841 336.156 337.206 313.347 337.206 299.399C337.206 291.194 334.838 289.881 334.838 283.973C334.838 280.035 336.732 277.574 340.047 277.574C343.834 277.574 345.255 281.184 345.255 286.763C345.255 314.496 305.799 405.897 278.338 405.897C273.761 405.897 271.394 403.764 271.394 400.154C271.394 396.872 273.603 394.247 276.444 394.247C280.074 394.247 280.074 397.857 284.651 397.857C290.806 397.857 300.433 386.862 309.587 372.094C311.481 345.018 310.849 289.225 305.168 289.225C302.8 289.225 299.328 293.327 293.647 304.814L291.911 303.501C297.908 289.553 304.852 277.574 310.692 277.574Z" fill="white"/>
<path d="M231.916 358.309C231.916 339.11 256.063 277.574 278.158 277.574C280.525 277.574 283.839 278.722 287.154 280.363L292.993 273.799L295.676 274.128L270.109 352.894C276.737 346.494 283.997 338.454 290.31 329.428L292.204 331.069C279.263 349.94 266.952 364.873 261.744 364.873C259.693 364.873 259.219 363.232 259.219 360.935C259.219 358.145 260.324 354.043 261.744 349.448L274.686 308.588C256.22 347.971 243.595 364.873 236.019 364.873C233.336 364.873 231.916 362.412 231.916 358.309ZM243.121 350.597C243.121 351.91 243.595 352.402 244.226 352.402C247.225 352.402 259.535 335.664 280.841 289.389L281.314 288.076C278.473 285.45 275.948 283.481 272.634 283.481C259.061 283.481 243.121 339.438 243.121 350.597Z" fill="white"/>
<path d="M250.464 255.257C252.515 251.482 254.094 248.036 254.094 245.083C254.094 242.785 253.147 241.636 249.832 241.636H247.149L247.781 239.175H272.401L271.77 241.636H270.981C263.879 241.636 260.88 245.247 255.04 255.585L193.49 363.889H191.28L193.49 303.009L157.033 363.889H154.823L159.558 256.569C160.031 245.739 158.926 241.636 151.824 241.636H149.93L150.562 239.175H182.284L181.653 241.636H179.917C173.288 241.636 171.552 244.262 170.921 256.405L167.133 339.931L193.647 294.968L195.068 256.569C195.541 245.411 194.752 241.636 187.966 241.636H186.072L186.545 239.175H216.374L215.585 241.636H213.691C207.378 241.636 206.589 246.395 206.273 256.405L205.484 279.707L221.424 253.287C223.318 250.005 224.581 247.216 224.581 244.59C224.581 242.621 223.318 241.636 220.319 241.636H219.057L219.688 239.175H241.468L240.994 241.636H240.205C235.47 241.636 231.841 244.098 225.843 253.944L205.168 287.912L203.275 339.602L250.464 255.257Z" fill="white"/>
<path d="M17 579.61C17 569.884 24.9412 562 34.7371 562H55.8299C65.6258 562 73.567 569.884 73.567 579.61C73.567 589.335 65.6258 597.219 55.8299 597.219H34.7371C24.9412 597.219 17 589.335 17 579.61Z" fill="black"/>
<path d="M26.9498 589.604L33.8049 571.281H36.4415L43.033 589.604H40.5546L38.8936 584.735H31.142L29.4282 589.604H26.9498ZM31.8538 582.772H38.2344L35.0969 573.558L31.8538 582.772Z" fill="white"/>
<path d="M53.9467 579.788V582.563H51.7319V580.966C51.7319 579.081 51.2574 578.636 49.5963 578.636C48.1198 578.636 47.3025 579.395 47.3025 581.699V589.604H45.035V577.04H47.3025V578.689C48.0407 577.328 49.1217 576.778 50.6246 576.778C52.6284 576.778 53.9467 577.851 53.9467 579.788Z" fill="white"/>
<path d="M60.574 589.604C58.2011 589.604 57.621 588.767 57.621 586.463V578.872H55.0108V577.04H56.5664C57.4892 577.04 57.7265 576.621 57.7265 575.862V573.768H59.8885V577.04H62.9206V578.872H59.8885V586.228C59.8885 587.432 60.2576 587.772 61.4441 587.772H62.9206V589.604H60.574Z" fill="white"/>
<path d="M143.557 633.39C143.557 623.665 151.498 615.781 161.294 615.781H272.99C282.786 615.781 290.727 623.665 290.727 633.39C290.727 643.116 282.786 651 272.99 651H161.294C151.498 651 143.557 643.116 143.557 633.39Z" fill="black"/>
<path d="M68.2938 597.695C68.2938 587.97 76.235 580.086 86.0309 580.086H159.376C169.172 580.086 177.113 587.97 177.113 597.695C177.113 607.421 169.172 615.305 159.376 615.305H86.0309C76.235 615.305 68.2938 607.421 68.2938 597.695Z" fill="black"/>
<path d="M153.555 626.549V624.586H168.32V626.549H162.124V642.909H159.751V626.549H153.555Z" fill="white"/>
<path d="M172.81 643.171C169.224 643.171 166.93 640.71 166.93 636.862C166.93 632.726 169.224 630.083 172.942 630.083C176.159 630.083 178.373 632.412 178.373 635.998V637.098H169.224C169.303 640.134 170.305 641.312 172.81 641.312C174.787 641.312 175.631 640.684 176.027 639.035H178.057C177.688 641.469 175.816 643.171 172.81 643.171ZM169.277 635.527H176.132C176.159 633.014 175.209 631.941 172.784 631.941C170.516 631.941 169.488 632.936 169.277 635.527Z" fill="white"/>
<path d="M186.064 641.312C188.279 641.312 189.175 640.344 189.413 638.302H191.627C191.416 641.208 189.254 643.171 186.064 643.171C182.505 643.171 180.184 640.841 180.184 636.81C180.184 632.726 182.505 630.083 186.064 630.083C189.623 630.083 191.627 632.098 191.627 635.213H189.465C189.439 632.831 188.569 631.941 186.064 631.941C183.454 631.941 182.478 633.25 182.478 636.653C182.478 640.03 183.454 641.312 186.064 641.312Z" fill="white"/>
<path d="M202.722 635.004C202.722 632.831 201.931 631.941 199.901 631.941C197.422 631.941 196.473 633.014 196.473 635.789V642.909H194.206V623.8H196.473V632.386C197.29 630.816 198.793 630.083 200.771 630.083C203.17 630.083 204.989 631.418 204.989 633.983V642.909H202.722V635.004Z" fill="white"/>
<path d="M208.284 642.909V630.344H210.551V632.386C211.368 630.816 212.871 630.083 214.849 630.083C217.248 630.083 219.067 631.418 219.067 633.983V642.909H216.8V635.004C216.8 632.831 216.009 631.941 213.979 631.941C211.5 631.941 210.551 633.014 210.551 635.789V642.909H208.284Z" fill="white"/>
<path d="M227.679 643.171C224.094 643.171 221.826 640.527 221.826 636.627C221.826 632.726 224.094 630.083 227.679 630.083C231.265 630.083 233.533 632.726 233.533 636.627C233.533 640.527 231.265 643.171 227.679 643.171ZM227.679 641.312C230.263 641.312 231.239 640.004 231.239 636.627C231.239 633.25 230.263 631.941 227.679 631.941C225.096 631.941 224.12 633.25 224.12 636.627C224.12 640.004 225.096 641.312 227.679 641.312Z" fill="white"/>
<path d="M238.786 623.8V642.909H236.518V623.8H238.786Z" fill="white"/>
<path d="M247.622 643.171C244.036 643.171 241.769 640.527 241.769 636.627C241.769 632.726 244.036 630.083 247.622 630.083C251.208 630.083 253.475 632.726 253.475 636.627C253.475 640.527 251.208 643.171 247.622 643.171ZM247.622 641.312C250.206 641.312 251.181 640.004 251.181 636.627C251.181 633.25 250.206 631.941 247.622 631.941C245.038 631.941 244.062 633.25 244.062 636.627C244.062 640.004 245.038 641.312 247.622 641.312Z" fill="white"/>
<path d="M261.338 648.799C258.201 648.799 256.513 647.438 256.276 644.951H258.543C258.675 646.626 259.519 647.045 261.523 647.045C263.843 647.045 264.555 646.05 264.555 643.825V640.632C263.737 642.176 262.366 642.909 260.784 642.909C257.594 642.909 255.538 640.344 255.538 636.47C255.538 632.648 257.594 630.083 260.784 630.083C262.366 630.083 263.711 630.816 264.555 632.36V630.344H266.822V643.773C266.822 646.836 265.161 648.799 261.338 648.799ZM257.805 636.496C257.805 639.768 258.543 641.051 261.206 641.051C263.606 641.051 264.555 640.03 264.555 637.307V635.711C264.555 632.988 263.606 631.941 261.206 631.941C258.543 631.941 257.805 633.224 257.805 636.496Z" fill="white"/>
<path d="M269.059 630.344H271.432L274.834 640.239L278.446 630.344H280.634L274.544 646.364C273.832 648.249 273.331 648.537 271.643 648.537H269.982V646.705H271.221C272.329 646.705 272.434 646.626 272.856 645.527L273.832 642.961L269.059 630.344Z" fill="white"/>
<path d="M86.2645 607.952C81.0704 607.952 79.1193 605.727 78.9875 601.905H81.4922C81.6504 604.994 82.5732 605.884 86.1327 605.884C89.402 605.884 90.4039 605.177 90.4039 602.585C90.4039 600.832 89.6393 599.968 87.3191 599.706L85.2362 599.47C81.7295 599.078 79.6203 597.638 79.6203 594.235C79.6203 591.146 82.0459 589.105 85.9481 589.105C89.9557 589.105 92.4869 591.33 92.6451 594.811H90.1403C89.903 591.984 88.9275 591.172 85.7635 591.172C82.8369 591.172 82.0196 592.036 82.0196 594.209C82.0196 596.172 83.0215 596.8 85.7108 597.088L87.9519 597.324C91.274 597.664 92.8033 599.706 92.8033 602.35C92.8033 606.198 90.2194 607.952 86.2645 607.952Z" fill="white"/>
<path d="M100.828 606.093C103.043 606.093 103.939 605.125 104.176 603.083H106.391C106.18 605.988 104.018 607.952 100.828 607.952C97.2684 607.952 94.9482 605.622 94.9482 601.591C94.9482 597.507 97.2684 594.863 100.828 594.863C104.387 594.863 106.391 596.879 106.391 599.994H104.229C104.203 597.612 103.333 596.722 100.828 596.722C98.2175 596.722 97.242 598.031 97.242 601.434C97.242 604.81 98.2175 606.093 100.828 606.093Z" fill="white"/>
<path d="M109.022 607.69V595.125H111.29V607.69H109.022ZM110.156 589.052C111.131 589.052 111.87 589.733 111.87 590.727C111.87 591.722 111.158 592.455 110.156 592.455C109.154 592.455 108.442 591.722 108.442 590.727C108.442 589.733 109.18 589.052 110.156 589.052Z" fill="white"/>
<path d="M120.152 607.952C116.566 607.952 114.273 605.491 114.273 601.643C114.273 597.507 116.566 594.863 120.284 594.863C123.501 594.863 125.715 597.193 125.715 600.779V601.879H116.566C116.646 604.915 117.647 606.093 120.152 606.093C122.13 606.093 122.973 605.465 123.369 603.816H125.399C125.03 606.25 123.158 607.952 120.152 607.952ZM116.619 600.308H123.474C123.501 597.795 122.551 596.722 120.126 596.722C117.858 596.722 116.83 597.717 116.619 600.308Z" fill="white"/>
<path d="M128.397 607.69V595.125H130.664V597.167C131.482 595.596 132.984 594.863 134.962 594.863C137.361 594.863 139.18 596.198 139.18 598.764V607.69H136.913V599.785C136.913 597.612 136.122 596.722 134.092 596.722C131.613 596.722 130.664 597.795 130.664 600.57V607.69H128.397Z" fill="white"/>
<path d="M147.819 606.093C150.034 606.093 150.93 605.125 151.167 603.083H153.382C153.171 605.988 151.009 607.952 147.819 607.952C144.26 607.952 141.939 605.622 141.939 601.591C141.939 597.507 144.26 594.863 147.819 594.863C151.378 594.863 153.382 596.879 153.382 599.994H151.22C151.194 597.612 150.324 596.722 147.819 596.722C145.209 596.722 144.233 598.031 144.233 601.434C144.233 604.81 145.209 606.093 147.819 606.093Z" fill="white"/>
<path d="M160.97 607.952C157.384 607.952 155.09 605.491 155.09 601.643C155.09 597.507 157.384 594.863 161.102 594.863C164.318 594.863 166.533 597.193 166.533 600.779V601.879H157.384C157.463 604.915 158.465 606.093 160.97 606.093C162.947 606.093 163.791 605.465 164.187 603.816H166.217C165.848 606.25 163.976 607.952 160.97 607.952ZM157.437 600.308H164.292C164.318 597.795 163.369 596.722 160.944 596.722C158.676 596.722 157.648 597.717 157.437 600.308Z" fill="white"/>
<path d="M286.892 616.257C286.892 606.531 294.833 598.647 304.629 598.647H371.263C381.059 598.647 389 606.531 389 616.257C389 625.982 381.059 633.866 371.263 633.866H304.629C294.833 633.866 286.892 625.982 286.892 616.257Z" fill="black"/>
<path d="M374.016 625.228C370.43 625.228 368.136 622.767 368.136 618.92C368.136 614.784 370.43 612.14 374.147 612.14C377.364 612.14 379.579 614.47 379.579 618.056V619.155H370.43C370.509 622.192 371.511 623.37 374.016 623.37C375.993 623.37 376.837 622.741 377.232 621.092H379.262C378.893 623.527 377.021 625.228 374.016 625.228ZM370.483 617.585H377.338C377.364 615.072 376.415 613.998 373.989 613.998C371.722 613.998 370.694 614.993 370.483 617.585Z" fill="white"/>
<path d="M366.492 615.15V617.925H364.277V616.328C364.277 614.443 363.803 613.998 362.141 613.998C360.665 613.998 359.848 614.757 359.848 617.061V624.966H357.58V612.402H359.848V614.051C360.586 612.69 361.667 612.14 363.17 612.14C365.174 612.14 366.492 613.213 366.492 615.15Z" fill="white"/>
<path d="M347.433 625.228C344.822 625.228 343.267 623.972 343.267 621.302V612.402H345.534V620.542C345.534 622.558 346.246 623.37 348.092 623.37C350.57 623.37 351.519 622.296 351.519 619.522V612.402H353.787V624.966H351.519V622.977C350.728 624.521 349.252 625.228 347.433 625.228Z" fill="white"/>
<path d="M338.378 624.966C336.005 624.966 335.425 624.129 335.425 621.825V614.234H332.815V612.402H334.37C335.293 612.402 335.53 611.983 335.53 611.224V609.13H337.692V612.402H340.724V614.234H337.692V621.59C337.692 622.794 338.061 623.134 339.248 623.134H340.724V624.966H338.378Z" fill="white"/>
<path d="M330.412 605.857V624.966H328.144V605.857H330.412Z" fill="white"/>
<path d="M317.944 625.228C315.334 625.228 313.778 623.972 313.778 621.302V612.402H316.045V620.542C316.045 622.558 316.757 623.37 318.603 623.37C321.081 623.37 322.031 622.296 322.031 619.522V612.402H324.298V624.966H322.031V622.977C321.24 624.521 319.763 625.228 317.944 625.228Z" fill="white"/>
<path d="M304.407 625.228C299.793 625.228 296.313 622.244 296.313 615.805C296.313 609.522 299.767 606.381 304.539 606.381C308.125 606.381 310.656 608.58 311.051 611.512H308.494C308.178 609.391 307.228 608.475 304.565 608.475C300.373 608.475 299.081 610.36 299.081 615.805C299.081 621.249 300.347 623.134 304.539 623.134C307.387 623.134 308.151 622.061 308.468 620.097H311.157C310.524 623.108 308.072 625.228 304.407 625.228Z" fill="white"/>
<path d="M16 17.5C16 7.83502 23.9429 0 33.741 0H294.103C303.901 0 311.844 7.83502 311.844 17.5C311.844 27.165 303.901 35 294.103 35H33.741C23.9429 35 16 27.165 16 17.5Z" fill="black"/>
<path d="M311.844 17.5C311.844 7.83502 319.787 0 329.585 0H372.259C382.057 0 390 7.83502 390 17.5C390 27.165 382.057 35 372.259 35H329.585C319.787 35 311.844 27.165 311.844 17.5Z" fill="black"/>
<path d="M27.9985 9.22297H30.3719V27.4324H27.9985V9.22297Z" fill="white"/>
<path d="M34.5508 27.4324V14.9459H36.8188V16.975C37.6363 15.4142 39.1395 14.6858 41.1174 14.6858C43.5172 14.6858 45.3369 16.0125 45.3369 18.5618V27.4324H43.0689V19.5764C43.0689 17.4172 42.2778 16.5328 40.2471 16.5328C37.7682 16.5328 36.8188 17.5993 36.8188 20.3568V27.4324H34.5508Z" fill="white"/>
<path d="M53.0807 27.4324C50.7073 27.4324 50.1271 26.6 50.1271 24.3108V16.7669H47.5163V14.9459H49.0722C49.9952 14.9459 50.2326 14.5297 50.2326 13.7753V11.6943H52.3951V14.9459H55.4278V16.7669H52.3951V24.0767C52.3951 25.2733 52.7643 25.6115 53.951 25.6115H55.4278V27.4324H53.0807Z" fill="white"/>
<path d="M63.0107 27.6926C59.4242 27.6926 57.1298 25.2473 57.1298 21.4233C57.1298 17.3132 59.4242 14.6858 63.1426 14.6858C66.36 14.6858 68.5752 17.001 68.5752 20.5649V21.6574H59.4242C59.5033 24.675 60.5054 25.8456 63.0107 25.8456C64.9886 25.8456 65.8325 25.2213 66.2281 23.5824H68.2587C67.8895 26.0017 66.0171 27.6926 63.0107 27.6926ZM59.4769 20.0966H66.3336C66.36 17.5993 65.4106 16.5328 62.9844 16.5328C60.7164 16.5328 59.6879 17.5213 59.4769 20.0966Z" fill="white"/>
<path d="M80.1707 17.6774V20.4348H77.9555V18.848C77.9555 16.975 77.4808 16.5328 75.8194 16.5328C74.3426 16.5328 73.5251 17.2872 73.5251 19.5764V27.4324H71.2571V14.9459H73.5251V16.5848C74.2635 15.2321 75.3447 14.6858 76.8479 14.6858C78.8522 14.6858 80.1707 15.7524 80.1707 17.6774Z" fill="white"/>
<path d="M87.0633 27.6926C83.8723 27.6926 81.8153 25.1432 81.8153 21.1632C81.8153 17.2351 83.8723 14.6858 87.0633 14.6858C88.6456 14.6858 89.9905 15.4142 90.8344 16.949V8.44257H93.1024V27.4324H90.8344V25.4294C90.0169 26.9642 88.6456 27.6926 87.0633 27.6926ZM84.0832 21.1892C84.0832 24.5709 84.8217 25.8456 87.4852 25.8456C89.885 25.8456 90.8344 24.8311 90.8344 22.1257V20.2787C90.8344 17.5733 89.885 16.5328 87.4852 16.5328C84.8217 16.5328 84.0832 17.8074 84.0832 21.1892Z" fill="white"/>
<path d="M96.9481 27.4324V14.9459H99.2161V27.4324H96.9481ZM98.0821 8.91081C99.0579 8.91081 99.7963 9.58716 99.7963 10.5757C99.7963 11.5642 99.0843 12.2926 98.0821 12.2926C97.08 12.2926 96.368 11.5642 96.368 10.5757C96.368 9.58716 97.1064 8.91081 98.0821 8.91081Z" fill="white"/>
<path d="M107.316 27.6926C104.494 27.6926 102.094 26.626 102.042 23.5304H104.336C104.441 25.4814 105.259 26.0277 107.237 26.0277C109.505 26.0277 110.032 25.4814 110.032 24.0507C110.032 22.8541 109.373 22.3338 107.843 22.1777L106.182 21.9956C103.624 21.7095 102.464 20.5128 102.464 18.3797C102.464 16.1686 104.23 14.6858 107.184 14.6858C110.085 14.6858 111.984 16.2466 112.116 18.6139H109.821C109.689 16.975 109.057 16.3507 107.079 16.3507C105.206 16.3507 104.547 16.8709 104.547 18.2236C104.547 19.4463 105.233 19.8365 106.789 19.9926L108.239 20.1486C110.797 20.4608 112.116 21.6834 112.116 24.0247C112.116 26.3399 110.296 27.6926 107.316 27.6926Z" fill="white"/>
<path d="M120.076 25.8456C122.291 25.8456 123.188 24.8831 123.425 22.8541H125.64C125.429 25.7416 123.267 27.6926 120.076 27.6926C116.516 27.6926 114.195 25.3774 114.195 21.3713C114.195 17.3132 116.516 14.6858 120.076 14.6858C123.636 14.6858 125.64 16.6889 125.64 19.7845H123.478C123.451 17.4172 122.581 16.5328 120.076 16.5328C117.465 16.5328 116.489 17.8334 116.489 21.2152C116.489 24.5709 117.465 25.8456 120.076 25.8456Z" fill="white"/>
<path d="M128.272 27.4324V14.9459H130.54V27.4324H128.272ZM129.406 8.91081C130.382 8.91081 131.12 9.58716 131.12 10.5757C131.12 11.5642 130.408 12.2926 129.406 12.2926C128.404 12.2926 127.692 11.5642 127.692 10.5757C127.692 9.58716 128.43 8.91081 129.406 8.91081Z" fill="white"/>
<path d="M140.433 27.6926C138.851 27.6926 137.479 26.9642 136.662 25.4294V33.0253H134.394V14.9459H136.662V16.949C137.506 15.4142 138.851 14.6858 140.433 14.6858C143.624 14.6858 145.681 17.2351 145.681 21.1632C145.681 25.1432 143.624 27.6926 140.433 27.6926ZM136.662 22.1257C136.662 24.8311 137.611 25.8456 140.011 25.8456C142.675 25.8456 143.413 24.5709 143.413 21.1892C143.413 17.8074 142.675 16.5328 140.011 16.5328C137.611 16.5328 136.662 17.5733 136.662 20.2787V22.1257Z" fill="white"/>
<path d="M150.924 8.44257V27.4324H148.656V8.44257H150.924Z" fill="white"/>
<path d="M154.831 27.4324V14.9459H157.099V27.4324H154.831ZM155.965 8.91081C156.941 8.91081 157.679 9.58716 157.679 10.5757C157.679 11.5642 156.967 12.2926 155.965 12.2926C154.963 12.2926 154.251 11.5642 154.251 10.5757C154.251 9.58716 154.989 8.91081 155.965 8.91081Z" fill="white"/>
<path d="M160.953 27.4324V14.9459H163.221V16.975C164.039 15.4142 165.542 14.6858 167.52 14.6858C169.92 14.6858 171.739 16.0125 171.739 18.5618V27.4324H169.471V19.5764C169.471 17.4172 168.68 16.5328 166.649 16.5328C164.17 16.5328 163.221 17.5993 163.221 20.3568V27.4324H160.953Z" fill="white"/>
<path d="M182.489 20.6429C182.199 21.1372 181.725 21.4493 180.96 21.5534L178.665 21.8395C177.4 21.9956 176.819 22.698 176.819 24.0247C176.819 25.2733 177.531 25.9497 179.035 25.9497C181.039 25.9497 182.489 24.0507 182.489 22.6459V20.6429ZM182.489 27.4324V25.0652C181.698 26.8341 180.485 27.6926 178.665 27.6926C176.213 27.6926 174.578 26.2618 174.578 24.0507C174.578 21.9696 176.081 20.5389 178.428 20.2527L181.276 19.9145C181.856 19.8365 182.226 19.6804 182.489 19.4203V18.3537C182.489 17.027 181.672 16.4287 179.879 16.4287C177.901 16.4287 177.03 16.975 177.03 18.7699H174.868C174.868 16.1166 176.477 14.6858 179.879 14.6858C183.07 14.6858 184.757 16.0905 184.757 18.1716V27.4324H182.489Z" fill="white"/>
<path d="M197.282 17.6774V20.4348H195.067V18.848C195.067 16.975 194.592 16.5328 192.931 16.5328C191.454 16.5328 190.636 17.2872 190.636 19.5764V27.4324H188.368V14.9459H190.636V16.5848C191.375 15.2321 192.456 14.6858 193.959 14.6858C195.964 14.6858 197.282 15.7524 197.282 17.6774Z" fill="white"/>
<path d="M198.267 14.9459H200.641L204.043 24.7791L207.656 14.9459H209.845L203.753 30.8662C203.041 32.7392 202.54 33.0253 200.852 33.0253H199.19V31.2044H200.43C201.537 31.2044 201.643 31.1264 202.065 30.0338L203.041 27.4845L198.267 14.9459Z" fill="white"/>
<path d="M218.336 9.22297H230.203V11.174H220.709V17.5473H229.676V19.4983H220.709V27.4324H218.336V9.22297Z" fill="white"/>
<path d="M237.754 27.6926C234.167 27.6926 231.873 25.2473 231.873 21.4233C231.873 17.3132 234.167 14.6858 237.886 14.6858C241.103 14.6858 243.318 17.001 243.318 20.5649V21.6574H234.167C234.246 24.675 235.248 25.8456 237.754 25.8456C239.732 25.8456 240.576 25.2213 240.971 23.5824H243.002C242.633 26.0017 240.76 27.6926 237.754 27.6926ZM234.22 20.0966H241.077C241.103 17.5993 240.154 16.5328 237.727 16.5328C235.459 16.5328 234.431 17.5213 234.22 20.0966Z" fill="white"/>
<path d="M250.246 27.6926C247.424 27.6926 245.024 26.626 244.972 23.5304H247.266C247.371 25.4814 248.189 26.0277 250.167 26.0277C252.435 26.0277 252.962 25.4814 252.962 24.0507C252.962 22.8541 252.303 22.3338 250.773 22.1777L249.112 21.9956C246.554 21.7095 245.394 20.5128 245.394 18.3797C245.394 16.1686 247.16 14.6858 250.114 14.6858C253.015 14.6858 254.914 16.2466 255.046 18.6139H252.751C252.619 16.975 251.986 16.3507 250.009 16.3507C248.136 16.3507 247.477 16.8709 247.477 18.2236C247.477 19.4463 248.163 19.8365 249.719 19.9926L251.169 20.1486C253.727 20.4608 255.046 21.6834 255.046 24.0247C255.046 26.3399 253.226 27.6926 250.246 27.6926Z" fill="white"/>
<path d="M262.006 27.4324C259.633 27.4324 259.052 26.6 259.052 24.3108V16.7669H256.442V14.9459H257.998C258.921 14.9459 259.158 14.5297 259.158 13.7753V11.6943H261.32V14.9459H264.353V16.7669H261.32V24.0767C261.32 25.2733 261.69 25.6115 262.876 25.6115H264.353V27.4324H262.006Z" fill="white"/>
<path d="M266.721 27.4324V14.9459H268.989V27.4324H266.721ZM267.855 8.91081C268.83 8.91081 269.569 9.58716 269.569 10.5757C269.569 11.5642 268.857 12.2926 267.855 12.2926C266.853 12.2926 266.141 11.5642 266.141 10.5757C266.141 9.58716 266.879 8.91081 267.855 8.91081Z" fill="white"/>
<path d="M278.064 27.4324H276.086L271.313 14.9459H273.687L277.141 24.9091L280.701 14.9459H282.89L278.064 27.4324Z" fill="white"/>
<path d="M291.958 20.6429C291.668 21.1372 291.193 21.4493 290.429 21.5534L288.134 21.8395C286.868 21.9956 286.288 22.698 286.288 24.0247C286.288 25.2733 287 25.9497 288.503 25.9497C290.508 25.9497 291.958 24.0507 291.958 22.6459V20.6429ZM291.958 27.4324V25.0652C291.167 26.8341 289.954 27.6926 288.134 27.6926C285.682 27.6926 284.047 26.2618 284.047 24.0507C284.047 21.9696 285.55 20.5389 287.897 20.2527L290.745 19.9145C291.325 19.8365 291.694 19.6804 291.958 19.4203V18.3537C291.958 17.027 291.141 16.4287 289.347 16.4287C287.369 16.4287 286.499 16.975 286.499 18.7699H284.337C284.337 16.1166 285.945 14.6858 289.347 14.6858C292.538 14.6858 294.226 16.0905 294.226 18.1716V27.4324H291.958Z" fill="white"/>
<path d="M300.158 8.44257V27.4324H297.89V8.44257H300.158Z" fill="white"/>
<path d="M323.833 9.22297H330.11C334.567 9.22297 336.755 11.2 336.755 14.8159C336.755 18.5878 334.54 20.5909 330.136 20.5909H326.207V27.4324H323.833V9.22297ZM326.207 18.6399H330.189C332.879 18.6399 334.118 17.5993 334.118 14.8419C334.118 12.1625 332.879 11.174 330.189 11.174H326.207V18.6399Z" fill="white"/>
<path d="M346.339 20.6429C346.049 21.1372 345.575 21.4493 344.81 21.5534L342.516 21.8395C341.25 21.9956 340.67 22.698 340.67 24.0247C340.67 25.2733 341.382 25.9497 342.885 25.9497C344.889 25.9497 346.339 24.0507 346.339 22.6459V20.6429ZM346.339 27.4324V25.0652C345.548 26.8341 344.335 27.6926 342.516 27.6926C340.063 27.6926 338.428 26.2618 338.428 24.0507C338.428 21.9696 339.931 20.5389 342.278 20.2527L345.126 19.9145C345.707 19.8365 346.076 19.6804 346.339 19.4203V18.3537C346.339 17.027 345.522 16.4287 343.729 16.4287C341.751 16.4287 340.88 16.975 340.88 18.7699H338.718C338.718 16.1166 340.327 14.6858 343.729 14.6858C346.92 14.6858 348.607 16.0905 348.607 18.1716V27.4324H346.339Z" fill="white"/>
<path d="M361.132 17.6774V20.4348H358.917V18.848C358.917 16.975 358.442 16.5328 356.781 16.5328C355.304 16.5328 354.486 17.2872 354.486 19.5764V27.4324H352.218V14.9459H354.486V16.5848C355.225 15.2321 356.306 14.6858 357.809 14.6858C359.814 14.6858 361.132 15.7524 361.132 17.6774Z" fill="white"/>
<path d="M363.7 27.4324V14.9459H365.968V27.4324H363.7ZM364.834 8.91081C365.809 8.91081 366.548 9.58716 366.548 10.5757C366.548 11.5642 365.836 12.2926 364.834 12.2926C363.832 12.2926 363.12 11.5642 363.12 10.5757C363.12 9.58716 363.858 8.91081 364.834 8.91081Z" fill="white"/>
<path d="M374.068 27.6926C371.246 27.6926 368.846 26.626 368.793 23.5304H371.088C371.193 25.4814 372.011 26.0277 373.988 26.0277C376.256 26.0277 376.784 25.4814 376.784 24.0507C376.784 22.8541 376.125 22.3338 374.595 22.1777L372.934 21.9956C370.375 21.7095 369.215 20.5128 369.215 18.3797C369.215 16.1686 370.982 14.6858 373.936 14.6858C376.837 14.6858 378.735 16.2466 378.867 18.6139H376.573C376.441 16.975 375.808 16.3507 373.83 16.3507C371.958 16.3507 371.298 16.8709 371.298 18.2236C371.298 19.4463 371.984 19.8365 373.54 19.9926L374.991 20.1486C377.549 20.4608 378.867 21.6834 378.867 24.0247C378.867 26.3399 377.048 27.6926 374.068 27.6926Z" fill="white"/>
</svg>
